<?xml version="1.0" encoding="utf-8"?>
<!-- Generator: Adobe Illustrator 16.0.4, SVG Export Plug-In . SVG Version: 6.00 Build 0)  -->
<!DOCTYPE svg PUBLIC "-//W3C//DTD SVG 1.1//EN" "http://www.w3.org/Graphics/SVG/1.1/DTD/svg11.dtd">
<svg version="1.1" id="Layer_1" xmlns="http://www.w3.org/2000/svg" xmlns:xlink="http://www.w3.org/1999/xlink" x="0px" y="0px"
	 width="28.02px" height="39.615px" viewBox="0 0 28.02 39.615" enable-background="new 0 0 28.02 39.615" xml:space="preserve">
<g>
	<g>
		<path fill="#E22B27" d="M27.811,8.455c-0.145-0.156-0.348-0.246-0.562-0.246H0.774c-0.214,0-0.421,0.09-0.566,0.246
			C0.063,8.611-0.011,8.822,0.001,9.033l2.062,29.864c0.028,0.405,0.364,0.718,0.77,0.718H25.19c0.402,0,0.742-0.312,0.77-0.718
			l2.059-29.864C28.034,8.822,27.959,8.611,27.811,8.455L27.811,8.455z M24.706,34.591H3.313L1.6,9.751H26.42L24.706,34.591z
			 M24.706,34.591"/>
	</g>
	<path fill="#E22B27" d="M3.268,15.932l1.308,17.636h18.872l1.309-17.636H3.268z"/>
</g>
<g>
	<path fill="#E22B27" d="M22.32,8.279l1.294-2.776c1.234,0.392,2.561-0.107,3.081-1.229c0.521-1.117,0.054-2.453-1.036-3.151
		l0.274-0.591c0.091-0.188,0.011-0.408-0.178-0.493c-0.188-0.092-0.408-0.011-0.494,0.177l-0.278,0.595
		c-1.235-0.391-2.562,0.107-3.082,1.23c-0.521,1.122-0.054,2.454,1.036,3.151l-1.438,3.082 M22.32,8.279 M21.499,8.273
		 M18.475,16.525l3.845-8.247h-0.821l-3.851,8.247 M18.475,16.525 M17.648,16.525"/>
</g>
<line fill="#E22B27" x1="17.648" y1="16.525" x2="18.475" y2="16.525"/>
</svg>
