<?xml version="1.0" encoding="utf-8"?>
<!-- Generator: Adobe Illustrator 16.0.4, SVG Export Plug-In . SVG Version: 6.00 Build 0)  -->
<!DOCTYPE svg PUBLIC "-//W3C//DTD SVG 1.1//EN" "http://www.w3.org/Graphics/SVG/1.1/DTD/svg11.dtd">
<svg version="1.1" id="Layer_1" xmlns="http://www.w3.org/2000/svg" xmlns:xlink="http://www.w3.org/1999/xlink" x="0px" y="0px"
	 width="32.204px" height="16.833px" viewBox="0 0 32.204 16.833" enable-background="new 0 0 32.204 16.833" xml:space="preserve">
<g>
	<path fill="#E22B27" d="M5.08,16.833h19.316c0.74,0,1.336-0.602,1.336-1.344H2.757c0,0.742,0.531,1.344,1.27,1.344H4.67H5.08z"/>
	<path fill="#E22B27" d="M31.015,3.034c-1.117-0.907-2.692-0.922-3.724-0.806C27.321,1.513,27.335,0.77,27.335,0H0
		c0,7.389,1.119,12.717,8.195,14.706H19.14c2.803-0.783,4.66-2.105,5.895-3.861c2.686-0.051,7.004-1.111,7.164-4.82
		C32.271,4.406,31.596,3.506,31.015,3.034L31.015,3.034z M26.16,8.725c0.516-1.321,0.82-2.809,0.986-4.443
		c0.727-0.123,1.975-0.195,2.606,0.32c0.116,0.094,0.479,0.392,0.436,1.335C30.109,7.862,27.72,8.506,26.16,8.725L26.16,8.725z
		 M26.16,8.725"/>
</g>
</svg>
