<?xml version="1.0" encoding="utf-8"?>
<!-- Generator: Adobe Illustrator 16.0.4, SVG Export Plug-In . SVG Version: 6.00 Build 0)  -->
<!DOCTYPE svg PUBLIC "-//W3C//DTD SVG 1.1//EN" "http://www.w3.org/Graphics/SVG/1.1/DTD/svg11.dtd">
<svg version="1.1" id="Layer_1" xmlns="http://www.w3.org/2000/svg" xmlns:xlink="http://www.w3.org/1999/xlink" x="0px" y="0px"
	 width="168.809px" height="111.967px" viewBox="0 0 168.809 111.967" enable-background="new 0 0 168.809 111.967"
	 xml:space="preserve">
<g>
	<path fill="#F9F6EA" d="M28.895,49.603c1.668,1.407,3.381,2.767,5.102,4.049l1.22,0.894c0.047,0.032,0.094,0.063,0.145,0.092
		c2.781,1.543,5.695,2.325,8.66,2.325c0.002,0,0,0,0.002,0c5.578,0,9.383-2.769,9.543-2.887l1.348-1
		c1.459-1.102,2.922-2.27,4.351-3.473c2.432-2.05,4.252-5.121,5.42-9.134c3.176-0.168,6.776-1.525,8.401-4.959
		c1.068-2.256,0.843-4.674-0.588-6.31c-1.608-1.841-4.715-1.761-6.295-1.579c-0.033-2.107-0.174-3.503-0.188-3.637
		c-0.06-0.555-0.453-1.018-0.99-1.163c-0.394-0.106-9.754-2.618-20.789-2.618c-11.033,0-20.682,2.508-21.088,2.615
		c-0.543,0.143-0.941,0.607-1,1.166C22.065,24.732,20.303,42.359,28.895,49.603z M66.175,30.354c1.28-0.188,3.526-0.237,4.284,0.628
		c0.699,0.8,0.771,2.123,0.179,3.371c-0.349,0.737-1.672,2.924-5.281,3.354C65.873,35.115,66.098,32.551,66.175,30.354z
		 M24.762,25.211c2.668-0.619,10.721-2.301,19.471-2.301c8.723,0,16.553,1.672,19.162,2.295c0.145,2.234,0.34,8.107-1.058,13.586
		c-1.008,3.955-2.629,6.896-4.819,8.742c-1.392,1.172-2.816,2.311-4.228,3.375l-1.334,0.989c-0.032,0.024-3.285,2.356-7.938,2.356
		c-2.474,0-4.922-0.654-7.275-1.944l-1.139-0.835c-1.67-1.243-3.34-2.569-4.967-3.941C24.178,42.086,24.532,28.855,24.762,25.211z"
		/>
	<path fill="#F9F6EA" d="M60.33,87.604c0.037-2.635-0.117-6.539-1.059-10.238c-0.842-3.301-2.119-5.688-3.795-7.104
		c-1.347-1.137-2.728-2.236-4.072-3.253l-1.275-0.946l-0.016-0.012c-0.002-0.001-0.006-0.004-0.012-0.01l-0.01-0.007
		c-0.238-0.161-2.689-1.75-6.07-1.75c0,0,0,0-0.002,0c-1.877,0-3.752,0.491-5.58,1.461l-0.943,0.692
		c-1.614,1.202-3.235,2.488-4.817,3.822c-4.104,3.461-4.908,12.029-4.854,17.32c3.594,0.718,9.803,1.719,16.408,1.719
		C50.784,89.302,56.823,88.315,60.33,87.604z"/>
	<path fill="#F9F6EA" d="M20.746,87.905c0.576,0,1.099-0.041,1.517-0.089c0.032,2.106,0.176,3.502,0.188,3.637
		c0.06,0.556,0.453,1.019,0.99,1.162c0.393,0.107,9.754,2.618,20.791,2.618c11.031,0,20.68-2.508,21.086-2.614
		c0.543-0.144,0.941-0.605,1-1.166c0.08-0.747,1.842-18.376-6.75-25.618c-1.672-1.408-3.387-2.771-5.104-4.049l-1.217-0.893
		c-0.047-0.033-0.094-0.064-0.145-0.092c-2.781-1.543-5.695-2.325-8.66-2.325c-5.58,0-9.385,2.768-9.545,2.887l-1.349,0.999
		c-1.454,1.098-2.918,2.267-4.35,3.473c-2.432,2.052-4.252,5.122-5.422,9.14c-3.172,0.167-6.775,1.521-8.4,4.954
		c-1.067,2.257-0.844,4.675,0.588,6.311C17.151,87.591,19.145,87.905,20.746,87.905z M26.125,76.646
		c1.009-3.954,2.632-6.896,4.82-8.742c1.396-1.176,2.82-2.312,4.227-3.375l1.335-0.988c0.03-0.022,3.284-2.355,7.938-2.355
		c2.473,0,4.922,0.651,7.275,1.945l1.139,0.834c1.664,1.238,3.336,2.563,4.967,3.939c6.461,5.447,6.107,18.678,5.877,22.322
		c-2.668,0.619-10.721,2.301-19.469,2.301c-8.725,0-16.555-1.673-19.164-2.294C24.925,87.998,24.729,82.125,26.125,76.646z
		 M17.827,81.084c0.349-0.735,1.681-2.926,5.281-3.354c-0.518,2.593-0.742,5.156-0.818,7.354c-1.254,0.184-3.53,0.233-4.285-0.629
		C17.305,83.656,17.235,82.333,17.827,81.084z"/>
	<path fill="#F9F6EA" d="M59.596,36.586c-0.009,0.035-0.019,0.069-0.025,0.104c0.002,0,0.002,0,0.002,0L59.596,36.586z"/>
	<path fill="#F9F6EA" d="M32.678,45.114c1.582,1.333,3.202,2.619,4.817,3.822l0.943,0.69c1.828,0.971,3.703,1.463,5.58,1.463
		c0.002,0,0.002,0,0.002,0c3.393,0,5.852-1.604,6.074-1.754l0.006-0.004c0.006-0.004,0.01-0.007,0.012-0.007l0.016-0.013
		l1.275-0.946c1.346-1.016,2.727-2.118,4.072-3.253c1.676-1.412,2.953-3.803,3.795-7.104c0.11-0.438,0.209-0.879,0.299-1.32
		c-6.293,0.243-14.484,1.893-30.975-0.042l0.096,0.489C29.399,40.375,30.625,43.383,32.678,45.114z"/>
	<path fill="#F9F6EA" d="M103.969,55.983h5.299c0.43,0,0.717-0.286,0.717-0.716v-5.585c0-0.334,0.238-0.621,0.619-0.621h2.723
		c0.479,0,0.764,0.286,0.764,0.716v5.49c0,0.43,0.287,0.716,0.766,0.716h5.201c0.432,0,0.764-0.286,0.764-0.716V29.014
		c0-4.439-2.242-6.444-5.773-6.444h-6.062c-3.531,0-5.727,2.005-5.727,6.444v26.254C103.254,55.697,103.492,55.983,103.969,55.983z
		 M109.985,28.918c0-0.332,0.238-0.619,0.619-0.619h2.816c0.383,0,0.668,0.287,0.668,0.619v13.7c0,0.431-0.238,0.669-0.668,0.716
		h-2.672c-0.479,0-0.766-0.285-0.766-0.716L109.985,28.918L109.985,28.918z"/>
	<path fill="#F9F6EA" d="M126.164,55.983h5.299c0.43,0,0.715-0.286,0.715-0.716V42.76c0-0.428,0.096-0.715,0.43-0.715
		c0.287,0,0.525,0.287,0.766,0.955l1.908,4.821c0.145,0.429,0.525,0.716,0.955,0.716h1.336c0.381,0,0.812-0.287,0.955-0.716
		L140.436,43c0.24-0.668,0.43-0.955,0.764-0.955s0.432,0.287,0.432,0.715v12.508c0,0.43,0.238,0.716,0.717,0.716h5.299
		c0.381,0,0.715-0.286,0.715-0.716V23.285c0-0.429-0.334-0.716-0.715-0.716h-5.203c-0.43,0-0.717,0.287-0.857,0.716l-4.152,13.891
		c-0.096,0.334-0.24,0.717-0.525,0.717s-0.479-0.383-0.57-0.717l-4.105-13.891c-0.096-0.429-0.43-0.716-0.908-0.716h-5.152
		c-0.432,0-0.719,0.287-0.719,0.716v31.982C125.448,55.697,125.735,55.983,126.164,55.983z"/>
	<path fill="#F9F6EA" d="M115.139,58.656h-11.025c-0.383,0-0.717,0.287-0.717,0.717v31.981c0,0.43,0.334,0.716,0.717,0.716h5.297
		c0.48,0,0.719-0.286,0.719-0.716v-4.728c0-0.382,0.236-0.716,0.621-0.716h4.391c3.533,0,5.775-2.005,5.775-6.442V65.101
		C120.914,60.662,118.672,58.656,115.139,58.656z M114.184,79.564c0,0.334-0.285,0.62-0.668,0.62h-2.625
		c-0.477,0-0.764-0.286-0.764-0.716V65.005c0-0.384,0.334-0.62,0.764-0.62h2.529c0.43,0,0.764,0.236,0.764,0.62V79.564z"/>
	<path fill="#F9F6EA" d="M125.639,92.07h5.299c0.428,0,0.715-0.286,0.715-0.716V78.848c0-0.432,0.098-0.716,0.432-0.716
		c0.285,0,0.523,0.284,0.764,0.953l1.91,4.821c0.143,0.431,0.523,0.716,0.955,0.716h1.336c0.381,0,0.811-0.285,0.955-0.716
		l1.906-4.821c0.24-0.669,0.432-0.953,0.766-0.953s0.43,0.284,0.43,0.716v12.507c0,0.43,0.24,0.716,0.717,0.716h5.301
		c0.381,0,0.715-0.286,0.715-0.716V59.373c0-0.43-0.334-0.717-0.715-0.717h-5.203c-0.432,0-0.719,0.287-0.859,0.717l-4.152,13.892
		c-0.096,0.335-0.238,0.717-0.523,0.717c-0.287,0-0.479-0.382-0.574-0.717l-4.104-13.892c-0.096-0.43-0.43-0.717-0.906-0.717h-5.154
		c-0.43,0-0.717,0.287-0.717,0.717v31.981C124.922,91.784,125.209,92.07,125.639,92.07z"/>
	<path fill="#F9F6EA" d="M0,0v111.967h168.809V0H0z M82.1,107.358H4.608V4.608H82.1V107.358z M164.201,107.358h-77.49V4.608h77.49
		V107.358z"/>
</g>
</svg>
