<?xml version="1.0" encoding="utf-8"?>
<!-- Generator: Adobe Illustrator 16.0.4, SVG Export Plug-In . SVG Version: 6.00 Build 0)  -->
<!DOCTYPE svg PUBLIC "-//W3C//DTD SVG 1.1//EN" "http://www.w3.org/Graphics/SVG/1.1/DTD/svg11.dtd">
<svg version="1.1" id="Layer_1" xmlns="http://www.w3.org/2000/svg" xmlns:xlink="http://www.w3.org/1999/xlink" x="0px" y="0px"
	 width="801.583px" height="29.729px" viewBox="0 0 801.583 29.729" enable-background="new 0 0 801.583 29.729"
	 xml:space="preserve">
<g>
	
		<rect x="221.224" y="3.603" transform="matrix(0.7071 -0.7071 0.7071 0.7071 60.0298 162.8205)" fill="none" width="10.684" height="10.684"/>
	
		<rect x="459.157" y="10.255" transform="matrix(0.7071 -0.7072 0.7072 0.7071 125.0407 333.0393)" fill="none" width="10.682" height="10.683"/>
	
		<rect x="212.967" y="11.866" transform="matrix(0.7071 -0.7071 0.7071 0.7071 51.778 159.4121)" fill="none" width="10.682" height="10.682"/>
	
		<rect x="475.677" y="10.256" transform="matrix(0.7072 -0.7071 0.7071 0.7072 129.8372 344.6774)" fill="none" width="10.683" height="10.681"/>
	
		<rect x="204.703" y="3.603" transform="matrix(0.7072 -0.707 0.707 0.7072 55.1821 151.1288)" fill="none" width="10.684" height="10.683"/>
	
		<rect x="691.029" y="9.68" transform="matrix(0.7071 -0.7071 0.7071 0.7071 193.341 496.8078)" fill="none" width="10.684" height="10.682"/>
	
		<rect x="591.899" y="9.679" transform="matrix(0.7071 -0.7071 0.7071 0.7071 164.3062 426.7126)" fill="none" width="10.684" height="10.684"/>
	
		<rect x="376.552" y="10.251" transform="matrix(0.707 -0.7072 0.7072 0.707 100.8538 274.6332)" fill="none" width="10.683" height="10.683"/>
	
		<rect x="179.93" y="11.85" transform="matrix(0.7071 -0.7071 0.7071 0.7071 42.1126 136.0465)" fill="none" width="10.682" height="10.682"/>
	
		<rect x="237.744" y="3.604" transform="matrix(0.7071 -0.7071 0.7071 0.7071 64.8675 174.5022)" fill="none" width="10.684" height="10.684"/>
	
		<rect x="674.507" y="9.68" transform="matrix(0.7071 -0.7071 0.7071 0.7071 188.5019 485.1254)" fill="none" width="10.684" height="10.682"/>
	
		<rect x="508.719" y="10.258" transform="matrix(0.7071 -0.7072 0.7072 0.7071 139.5574 368.0884)" fill="none" width="10.682" height="10.683"/>
	
		<rect x="196.446" y="11.865" transform="matrix(0.7071 -0.7071 0.7071 0.7071 46.9396 147.7296)" fill="none" width="10.682" height="10.682"/>
	
		<rect x="492.197" y="10.255" transform="matrix(0.707 -0.7072 0.7072 0.707 134.7411 356.4281)" fill="none" width="10.683" height="10.683"/>
	
		<rect x="188.183" y="3.602" transform="matrix(0.7072 -0.7071 0.7071 0.7072 50.3494 139.4525)" fill="none" width="10.683" height="10.684"/>
	
		<rect x="254.265" y="3.605" transform="matrix(0.7072 -0.707 0.707 0.7072 69.6938 186.172)" fill="none" width="10.684" height="10.683"/>
	
		<rect x="707.551" y="9.678" transform="matrix(0.7071 -0.7071 0.7071 0.7071 198.1806 508.4908)" fill="none" width="10.684" height="10.684"/>
	
		<rect x="326.99" y="10.248" transform="matrix(0.707 -0.7072 0.7072 0.707 86.3361 239.5833)" fill="none" width="10.683" height="10.683"/>
	
		<rect x="310.468" y="10.248" transform="matrix(0.7071 -0.7071 0.7071 0.7071 81.4822 227.8846)" fill="none" width="10.682" height="10.682"/>
	
		<rect x="409.594" y="10.253" transform="matrix(0.7071 -0.7072 0.7072 0.7071 110.5233 297.9904)" fill="none" width="10.682" height="10.683"/>
	
		<rect x="393.073" y="10.252" transform="matrix(0.707 -0.7072 0.7072 0.707 105.693 286.3166)" fill="none" width="10.682" height="10.683"/>
	
		<rect x="343.51" y="10.249" transform="matrix(0.707 -0.7072 0.7072 0.707 91.1753 251.2665)" fill="none" width="10.683" height="10.683"/>
	
		<rect x="360.031" y="10.25" transform="matrix(0.7071 -0.7071 0.7071 0.7071 95.9986 262.9327)" fill="none" width="10.682" height="10.682"/>
	
		<rect x="293.948" y="10.247" transform="matrix(0.7071 -0.7072 0.7072 0.7071 76.6502 216.2094)" fill="none" width="10.682" height="10.683"/>
	
		<rect x="442.635" y="10.253" transform="matrix(0.707 -0.7072 0.7072 0.707 120.2214 321.377)" fill="none" width="10.683" height="10.683"/>
	
		<rect x="426.115" y="10.253" transform="matrix(0.7071 -0.7071 0.7071 0.7071 115.3441 309.6532)" fill="none" width="10.684" height="10.682"/>
	
		<rect x="171.673" y="3.594" transform="matrix(0.7071 -0.7071 0.7071 0.7071 45.528 127.7848)" fill="none" width="10.683" height="10.683"/>
	
		<rect x="246.008" y="11.867" transform="matrix(0.707 -0.7072 0.7072 0.707 61.4662 182.7896)" fill="none" width="10.683" height="10.683"/>
	
		<rect x="261.717" y="12.204" transform="matrix(0.707 -0.7072 0.7072 0.707 66.6419 193.6611)" fill="none" width="10.683" height="8.388"/>
	
		<rect x="277.427" y="10.246" transform="matrix(0.707 -0.7072 0.7072 0.707 71.8174 204.533)" fill="none" width="10.683" height="10.683"/>
	
		<rect x="269.974" y="3.941" transform="matrix(0.7071 -0.7071 0.7071 0.7071 74.8799 197.0543)" fill="none" width="10.684" height="8.389"/>
	
		<rect x="229.488" y="11.866" transform="matrix(0.707 -0.7072 0.7072 0.707 56.6274 171.1064)" fill="none" width="10.683" height="10.683"/>
	
		<rect x="740.594" y="9.678" transform="matrix(0.7071 -0.7071 0.7071 0.7071 207.859 531.8556)" fill="none" width="10.684" height="10.683"/>
	
		<rect x="80.798" y="11.858" transform="matrix(0.7072 -0.707 0.707 0.7072 13.0626 65.9402)" fill="none" width="10.682" height="10.684"/>
	
		<rect x="72.538" y="3.598" transform="matrix(0.7071 -0.7072 0.7072 0.7071 16.4924 57.6919)" fill="none" width="10.683" height="10.684"/>
	
		<rect x="558.856" y="9.68" transform="matrix(0.7071 -0.7071 0.7071 0.7071 154.6277 403.3478)" fill="none" width="10.684" height="10.683"/>
	
		<rect x="89.059" y="3.599" transform="matrix(0.707 -0.7072 0.7072 0.707 21.3351 69.3794)" fill="none" width="10.684" height="10.684"/>
	
		<rect x="724.072" y="9.68" transform="matrix(0.7071 -0.7071 0.7071 0.7071 203.019 520.1727)" fill="none" width="10.684" height="10.682"/>
	
		<rect x="624.943" y="9.68" transform="matrix(0.7071 -0.7071 0.7071 0.7071 173.9848 450.078)" fill="none" width="10.684" height="10.682"/>
	
		<rect x="64.278" y="11.857" transform="matrix(0.7072 -0.707 0.707 0.7072 8.2258 54.2595)" fill="none" width="10.682" height="10.683"/>
	
		<rect x="757.116" y="9.678" transform="matrix(0.7071 -0.7071 0.7071 0.7071 212.6978 543.5382)" fill="none" width="10.684" height="10.684"/>
	
		<rect x="39.497" y="3.596" transform="matrix(0.707 -0.7072 0.7072 0.707 6.8163 34.3284)" fill="none" width="10.684" height="10.684"/>
	
		<rect x="773.637" y="9.678" transform="matrix(0.7071 -0.7071 0.7071 0.7071 217.537 555.2205)" fill="none" width="10.684" height="10.683"/>
	
		<rect x="575.378" y="9.68" transform="matrix(0.7071 -0.7071 0.7071 0.7071 159.4677 415.0307)" fill="none" width="10.684" height="10.682"/>
	
		<rect x="608.421" y="9.68" transform="matrix(0.7071 -0.7071 0.7071 0.7071 169.1458 438.3956)" fill="none" width="10.684" height="10.682"/>
	
		<rect x="56.017" y="3.598" transform="matrix(0.7071 -0.7071 0.7071 0.7071 11.6516 46.0074)" fill="none" width="10.684" height="10.683"/>
	
		<rect x="97.319" y="11.858" transform="matrix(0.7071 -0.7071 0.7071 0.7071 17.9044 77.6269)" fill="none" width="10.683" height="10.684"/>
	
		<rect x="47.757" y="11.857" transform="matrix(0.7072 -0.707 0.707 0.7072 3.388 42.5785)" fill="none" width="10.682" height="10.683"/>
	
		<rect x="31.236" y="11.856" transform="matrix(0.7072 -0.707 0.707 0.7072 -1.4493 30.8966)" fill="none" width="10.683" height="10.683"/>
	
		<rect x="525.24" y="10.258" transform="matrix(0.7071 -0.7071 0.7071 0.7071 144.3737 379.7466)" fill="none" width="10.684" height="10.682"/>
	
		<rect x="146.89" y="11.855" transform="matrix(0.7071 -0.7071 0.7071 0.7071 32.4281 112.6805)" fill="none" width="10.683" height="10.683"/>
	
		<rect x="138.63" y="3.594" transform="matrix(0.7071 -0.7071 0.7071 0.7071 35.8499 104.4199)" fill="none" width="10.683" height="10.683"/>
	
		<rect x="22.976" y="3.596" transform="matrix(0.7071 -0.7071 0.7071 0.7071 1.9745 22.6421)" fill="none" width="10.684" height="10.684"/>
	
		<rect x="163.411" y="11.854" transform="matrix(0.7071 -0.7072 0.7072 0.7071 37.274 124.3713)" fill="none" width="10.683" height="10.684"/>
	
		<rect x="130.368" y="11.856" transform="matrix(0.7071 -0.7071 0.7071 0.7071 27.5855 100.9945)" fill="none" width="10.683" height="10.683"/>
	
		<rect x="657.986" y="9.68" transform="matrix(0.7071 -0.7071 0.7071 0.7071 183.6629 473.4429)" fill="none" width="10.684" height="10.682"/>
	
		<rect x="155.151" y="3.594" transform="matrix(0.7071 -0.7072 0.7072 0.7071 40.6958 116.1099)" fill="none" width="10.683" height="10.683"/>
	
		<rect x="6.455" y="3.595" transform="matrix(0.7071 -0.7071 0.7071 0.7071 -2.864 10.9596)" fill="none" width="10.684" height="10.684"/>
	
		<rect x="113.839" y="11.859" transform="matrix(0.7071 -0.7071 0.7071 0.7071 22.742 89.3084)" fill="none" width="10.683" height="10.684"/>
	
		<rect x="641.464" y="9.68" transform="matrix(0.7071 -0.7071 0.7071 0.7071 178.8239 461.7605)" fill="none" width="10.684" height="10.682"/>
	
		<rect x="541.672" y="9.954" transform="matrix(0.7071 -0.7071 0.7071 0.7071 149.5146 391.5515)" fill="none" width="11.46" height="10.684"/>
	
		<rect x="14.715" y="11.855" transform="matrix(0.7072 -0.7071 0.7071 0.7072 -6.2858 19.2174)" fill="none" width="10.683" height="10.684"/>
	
		<rect x="105.58" y="3.6" transform="matrix(0.7071 -0.7071 0.7071 0.7071 26.1679 81.0553)" fill="none" width="10.684" height="10.684"/>
	
		<rect x="122.101" y="3.601" transform="matrix(0.7071 -0.7071 0.7071 0.7071 31.0063 92.7377)" fill="none" width="10.684" height="10.684"/>
	<polygon fill="#6196AD" points="0,11.767 0,13.181 3.537,9.644 2.83,8.937 	"/>
	
		<rect x="7.168" y="-0.534" transform="matrix(-0.7071 -0.7071 0.7071 -0.7071 9.6902 13.6276)" fill="#6196AD" width="1" height="10.683"/>
	<polygon fill="#6196AD" points="13.181,0 11.829,0 12.505,0.676 	"/>
	
		<rect x="7.167" y="15.987" transform="matrix(0.7071 0.7071 -0.7071 0.7071 17.3266 0.8256)" fill="#6196AD" width="1" height="10.682"/>
	<polygon fill="#6196AD" points="29.703,0 28.35,0 29.026,0.676 	"/>
	
		<rect x="23.689" y="-0.535" transform="matrix(-0.7071 -0.7071 0.7071 -0.7071 37.894 25.308)" fill="#6196AD" width="1" height="10.683"/>
	<polygon fill="#6196AD" points="0,28.288 0,29.702 3.537,26.165 2.83,25.458 	"/>
	
		<rect x="10.585" y="12.568" transform="matrix(0.7071 -0.7072 0.7072 0.7071 -4.5755 15.091)" fill="#6196AD" width="10.683" height="1"/>
	<polygon fill="#6196AD" points="46.224,0 44.872,0 45.548,0.676 	"/>
	
		<rect x="17.424" y="25.073" transform="matrix(0.7071 0.7071 -0.7071 0.7071 24.7608 -4.5927)" fill="#6196AD" width="1" height="5.038"/>
	
		<rect x="40.21" y="-0.535" transform="matrix(-0.7066 -0.7076 0.7076 -0.7066 66.0762 37.0092)" fill="#6196AD" width="1.001" height="10.683"/>
	
		<rect x="27.106" y="12.569" transform="matrix(0.707 -0.7072 0.7072 0.707 0.2647 26.7762)" fill="#6196AD" width="10.684" height="1"/>
	
		<rect x="23.689" y="15.987" transform="matrix(0.7071 0.7071 -0.7071 0.7071 22.1661 -10.8571)" fill="#6196AD" width="1" height="10.682"/>
	
		<rect x="43.627" y="12.569" transform="matrix(0.707 -0.7072 0.7072 0.707 5.1042 38.4596)" fill="#6196AD" width="10.684" height="1"/>
	
		<rect x="33.945" y="25.073" transform="matrix(0.7071 0.7071 -0.7071 0.7071 29.5997 -16.2748)" fill="#6196AD" width="1" height="5.038"/>
	
		<rect x="40.21" y="15.987" transform="matrix(0.7071 0.7071 -0.7071 0.7071 27.0052 -22.5395)" fill="#6196AD" width="1" height="10.682"/>
	
		<rect x="56.731" y="-0.535" transform="matrix(-0.7071 -0.7071 0.7071 -0.7071 94.3019 48.6729)" fill="#6196AD" width="1" height="10.683"/>
	<polygon fill="#6196AD" points="62.746,0 61.393,0 62.069,0.676 	"/>
	
		<rect x="56.732" y="15.988" transform="matrix(0.7071 0.7071 -0.7071 0.7071 31.8447 -34.2222)" fill="#6196AD" width="1" height="10.682"/>
	
		<rect x="50.467" y="25.074" transform="matrix(0.7071 0.7071 -0.7071 0.7071 34.4395 -27.9574)" fill="#6196AD" width="1" height="5.038"/>
	
		<rect x="73.252" y="-0.536" transform="matrix(-0.7071 -0.7071 0.7071 -0.7071 122.5053 60.3542)" fill="#6196AD" width="1" height="10.683"/>
	
		<rect x="60.148" y="12.57" transform="matrix(0.7071 -0.7071 0.7071 0.7071 9.9408 50.1383)" fill="#6196AD" width="10.684" height="1"/>
	<polygon fill="#6196AD" points="79.267,0 77.915,0 78.591,0.676 	"/>
	
		<rect x="66.989" y="25.073" transform="matrix(0.7071 0.7071 -0.7071 0.7071 39.2779 -39.6401)" fill="#6196AD" width="1" height="5.038"/>
	
		<rect x="73.254" y="15.989" transform="matrix(0.7066 0.7076 -0.7076 0.7066 36.7306 -45.9304)" fill="#6196AD" width="1.001" height="10.682"/>
	<polygon fill="#6196AD" points="95.789,0 94.436,0 95.112,0.676 	"/>
	
		<rect x="89.774" y="-0.536" transform="matrix(-0.7071 -0.7071 0.7071 -0.7071 150.7094 72.0377)" fill="#6196AD" width="1" height="10.683"/>
	
		<rect x="76.669" y="12.571" transform="matrix(0.7071 -0.7071 0.7071 0.7071 14.7793 61.8208)" fill="#6196AD" width="10.684" height="1"/>
	
		<rect x="83.511" y="25.075" transform="matrix(0.7071 0.7071 -0.7071 0.7071 44.1177 -51.3224)" fill="#6196AD" width="1" height="5.038"/>
	
		<rect x="89.775" y="15.988" transform="matrix(0.7071 0.7071 -0.7071 0.7071 41.5228 -57.5871)" fill="#6196AD" width="1" height="10.682"/>
	
		<rect x="93.19" y="12.572" transform="matrix(0.7071 -0.7072 0.7072 0.7071 19.6198 73.5061)" fill="#6196AD" width="10.683" height="1"/>
	<polygon fill="#6196AD" points="112.31,0 110.958,0 111.634,0.676 	"/>
	
		<rect x="106.295" y="-0.537" transform="matrix(-0.7071 -0.7071 0.7071 -0.7071 178.9131 83.7181)" fill="#6196AD" width="1" height="10.683"/>
	<polygon fill="#6196AD" points="128.832,0 127.479,0 128.155,0.676 	"/>
	
		<rect x="100.031" y="25.075" transform="matrix(0.7066 0.7076 -0.7076 0.7066 49.0192 -63.0403)" fill="#6196AD" width="1.001" height="5.037"/>
	
		<rect x="106.297" y="15.988" transform="matrix(0.7071 0.7071 -0.7071 0.7071 46.3623 -69.2697)" fill="#6196AD" width="1" height="10.682"/>
	
		<rect x="109.711" y="12.572" transform="matrix(0.7071 -0.7071 0.7071 0.7071 24.4573 85.1864)" fill="#6196AD" width="10.684" height="1"/>
	
		<rect x="122.817" y="-0.535" transform="matrix(-0.7071 -0.7071 0.7071 -0.7071 207.1168 95.4024)" fill="#6196AD" width="1" height="10.683"/>
	
		<rect x="139.338" y="-0.537" transform="matrix(-0.7074 -0.7069 0.7069 -0.7074 235.3559 107.0499)" fill="#6196AD" width="1" height="10.683"/>
	
		<rect x="126.232" y="12.573" transform="matrix(0.7071 -0.7072 0.7072 0.7071 29.2983 96.8719)" fill="#6196AD" width="10.683" height="1"/>
	
		<rect x="122.818" y="15.989" transform="matrix(0.7069 0.7074 -0.7074 0.7069 51.2365 -80.9769)" fill="#6196AD" width="1.001" height="10.682"/>
	<polygon fill="#6196AD" points="145.353,0 144,0 144.677,0.676 	"/>
	
		<rect x="116.554" y="25.074" transform="matrix(0.7071 0.7071 -0.7071 0.7071 53.7958 -74.6875)" fill="#6196AD" width="1" height="5.038"/>
	
		<rect x="139.34" y="15.988" transform="matrix(0.7071 0.7071 -0.7071 0.7071 56.0404 -92.6348)" fill="#6196AD" width="1" height="10.683"/>
	
		<rect x="142.759" y="12.566" transform="matrix(0.7071 -0.7071 0.7071 0.7071 34.1416 108.5538)" fill="#6196AD" width="10.684" height="1"/>
	
		<rect x="133.075" y="25.075" transform="matrix(0.7071 0.7071 -0.7071 0.7071 58.6348 -86.3698)" fill="#6196AD" width="1" height="5.038"/>
	<polygon fill="#6196AD" points="161.875,0 160.522,0 161.198,0.676 	"/>
	
		<rect x="155.86" y="-0.536" transform="matrix(-0.7071 -0.7071 0.7071 -0.7071 263.5246 118.7663)" fill="#6196AD" width="1" height="10.684"/>
	
		<rect x="155.862" y="15.987" transform="matrix(0.7071 0.7071 -0.7071 0.7071 60.879 -104.3172)" fill="#6196AD" width="1" height="10.684"/>
	
		<rect x="172.381" y="-0.537" transform="matrix(-0.7071 -0.7071 0.7071 -0.7071 291.7281 130.4476)" fill="#6196AD" width="1" height="10.683"/>
	
		<rect x="159.281" y="12.566" transform="matrix(0.7071 -0.7071 0.7071 0.7071 38.9746 120.2287)" fill="#6196AD" width="10.683" height="1"/>
	<polygon fill="#6196AD" points="178.396,0 177.043,0 177.72,0.676 	"/>
	
		<rect x="149.597" y="25.075" transform="matrix(0.7071 0.7071 -0.7071 0.7071 63.4739 -98.0526)" fill="#6196AD" width="1" height="5.038"/>
	<polygon fill="#6196AD" points="194.917,0 193.565,0 194.241,0.676 	"/>
	
		<rect x="166.119" y="25.075" transform="matrix(0.7074 0.7069 -0.7069 0.7074 68.2664 -109.7012)" fill="#6196AD" width="1" height="5.038"/>
	
		<rect x="188.903" y="-0.536" transform="matrix(-0.7071 -0.7071 0.7071 -0.7071 319.9329 142.1304)" fill="#6196AD" width="1" height="10.682"/>
	
		<rect x="175.803" y="12.566" transform="matrix(0.7071 -0.7071 0.7071 0.7071 43.817 131.915)" fill="#6196AD" width="10.683" height="1"/>
	
		<rect x="172.384" y="15.988" transform="matrix(0.7071 0.7071 -0.7071 0.7071 65.7185 -115.9999)" fill="#6196AD" width="1" height="10.683"/>
	<polygon fill="#6196AD" points="211.439,0 210.086,0 210.762,0.676 	"/>
	
		<rect x="205.424" y="-0.536" transform="matrix(-0.7074 -0.7069 0.7069 -0.7074 348.1881 153.7627)" fill="#6196AD" width="1" height="10.682"/>
	
		<rect x="188.905" y="15.987" transform="matrix(0.7071 0.7071 -0.7071 0.7071 70.5567 -127.6823)" fill="#6196AD" width="1" height="10.682"/>
	
		<rect x="192.312" y="12.573" transform="matrix(0.7071 -0.7071 0.7071 0.7071 48.6431 143.5872)" fill="#6196AD" width="10.684" height="1.001"/>
	
		<rect x="182.64" y="25.075" transform="matrix(0.7071 0.7071 -0.7071 0.7071 73.1524 -121.4175)" fill="#6196AD" width="1" height="5.037"/>
	
		<rect x="205.427" y="15.989" transform="matrix(0.7066 0.7076 -0.7076 0.7066 75.5077 -139.4552)" fill="#6196AD" width="1.001" height="10.682"/>
	
		<rect x="221.946" y="-0.536" transform="matrix(-0.7071 -0.7071 0.7071 -0.7071 376.3407 165.4953)" fill="#6196AD" width="1" height="10.682"/>
	
		<rect x="208.834" y="12.575" transform="matrix(0.7072 -0.707 0.707 0.7072 53.4717 155.2588)" fill="#6196AD" width="10.684" height="1"/>
	
		<rect x="199.162" y="25.074" transform="matrix(0.7071 0.7071 -0.7071 0.7071 77.9911 -133.1001)" fill="#6196AD" width="1" height="5.038"/>
	<polygon fill="#6196AD" points="227.96,0 226.608,0 227.284,0.676 	"/>
	
		<rect x="225.354" y="12.575" transform="matrix(0.7072 -0.707 0.707 0.7072 58.3087 166.9397)" fill="#6196AD" width="10.684" height="1"/>
	
		<rect x="238.467" y="-0.537" transform="matrix(-0.7071 -0.7071 0.7071 -0.7071 404.5445 177.1757)" fill="#6196AD" width="1" height="10.682"/>
	<polygon fill="#6196AD" points="244.482,0 243.129,0 243.805,0.676 	"/>
	
		<rect x="221.948" y="15.988" transform="matrix(0.7074 0.7069 -0.7069 0.7074 80.1759 -150.9985)" fill="#6196AD" width="1" height="10.682"/>
	
		<rect x="215.684" y="25.075" transform="matrix(0.7071 0.7071 -0.7071 0.7071 82.831 -144.7827)" fill="#6196AD" width="1" height="5.038"/>
	
		<rect x="232.205" y="25.076" transform="matrix(0.7066 0.7076 -0.7076 0.7066 87.797 -156.565)" fill="#6196AD" width="1.001" height="5.037"/>
	
		<rect x="254.989" y="-0.536" transform="matrix(-0.7071 -0.7071 0.7071 -0.7071 432.749 188.8594)" fill="#6196AD" width="1" height="10.682"/>
	
		<rect x="241.875" y="12.575" transform="matrix(0.7072 -0.707 0.707 0.7072 63.1464 178.6207)" fill="#6196AD" width="10.684" height="1"/>
	
		<rect x="238.47" y="15.988" transform="matrix(0.7071 0.7071 -0.7071 0.7071 85.0748 -162.7301)" fill="#6196AD" width="1" height="10.682"/>
	<polygon fill="#6196AD" points="261.003,0 259.651,0 260.327,0.676 	"/>
	<polygon fill="#6196AD" points="277.525,0 276.172,0 276.848,0.676 	"/>
	
		<rect x="271.51" y="-0.537" transform="matrix(-0.7071 -0.7071 0.7071 -0.7071 460.9524 200.5406)" fill="#6196AD" width="1" height="10.682"/>
	
		<rect x="254.992" y="15.988" transform="matrix(0.7071 0.7071 -0.7071 0.7071 89.9135 -174.4127)" fill="#6196AD" width="1" height="10.682"/>
	
		<rect x="248.727" y="25.076" transform="matrix(0.7071 0.7071 -0.7071 0.7071 92.5091 -168.1477)" fill="#6196AD" width="1" height="5.038"/>
	
		<rect x="258.396" y="12.576" transform="matrix(0.7072 -0.707 0.707 0.7072 67.9833 190.3016)" fill="#6196AD" width="10.684" height="1"/>
	
		<rect x="262.814" y="23.116" transform="matrix(0.7071 0.7071 -0.7071 0.7071 96.0612 -178.3464)" fill="#6196AD" width="1" height="7.333"/>
	<polygon fill="#6196AD" points="290.8,0 289.386,0 282.78,6.606 283.487,7.313 	"/>
	
		<rect x="269.89" y="14.365" transform="matrix(0.7071 0.7071 -0.7071 0.7071 93.13 -185.423)" fill="#6196AD" width="1" height="10.682"/>
	
		<rect x="273.293" y="10.953" transform="matrix(0.7071 -0.7071 0.7071 0.7071 73.5056 200.373)" fill="#6196AD" width="10.684" height="1.001"/>
	
		<rect x="279.335" y="23.116" transform="matrix(0.7074 0.7069 -0.7069 0.7074 100.8254 -189.967)" fill="#6196AD" width="1" height="7.333"/>
	<polygon fill="#6196AD" points="307.322,0 305.908,0 299.301,6.606 300.008,7.313 	"/>
	
		<rect x="286.411" y="14.365" transform="matrix(0.7071 0.7071 -0.7071 0.7071 97.9689 -197.1051)" fill="#6196AD" width="1" height="10.682"/>
	
		<rect x="294.669" y="6.1" transform="matrix(-0.7071 -0.7071 0.7071 -0.7071 495.7939 228.2469)" fill="#6196AD" width="1" height="10.683"/>
	
		<rect x="302.933" y="14.366" transform="matrix(0.7074 0.7069 -0.7069 0.7074 102.7296 -208.7187)" fill="#6196AD" width="1" height="10.682"/>
	
		<rect x="311.19" y="6.1" transform="matrix(-0.7071 -0.7071 0.7071 -0.7071 523.9979 239.9304)" fill="#6196AD" width="1" height="10.683"/>
	<polygon fill="#6196AD" points="323.843,0 322.429,0 315.823,6.606 316.53,7.313 	"/>
	
		<rect x="295.857" y="23.116" transform="matrix(0.7074 0.7069 -0.7069 0.7074 105.6606 -201.6458)" fill="#6196AD" width="1" height="7.333"/>
	<polygon fill="#6196AD" points="340.365,0 338.951,0 332.344,6.606 333.051,7.313 	"/>
	
		<rect x="327.711" y="6.099" transform="matrix(-0.7071 -0.7071 0.7071 -0.7071 552.2018 251.6108)" fill="#6196AD" width="1" height="10.683"/>
	
		<rect x="319.455" y="14.365" transform="matrix(0.7071 0.7071 -0.7071 0.7071 107.6471 -220.4704)" fill="#6196AD" width="1" height="10.682"/>
	
		<rect x="312.378" y="23.116" transform="matrix(0.7071 0.7071 -0.7071 0.7071 110.5783 -213.3937)" fill="#6196AD" width="1" height="7.333"/>
	
		<rect x="335.977" y="14.366" transform="matrix(0.7071 0.7071 -0.7071 0.7071 112.4866 -232.153)" fill="#6196AD" width="1" height="10.682"/>
	
		<rect x="344.233" y="6.1" transform="matrix(-0.7066 -0.7076 0.7076 -0.7066 580.2319 263.4569)" fill="#6196AD" width="1.001" height="10.683"/>
	
		<rect x="328.9" y="23.117" transform="matrix(0.7071 0.7071 -0.7071 0.7071 115.4178 -225.0764)" fill="#6196AD" width="1" height="7.332"/>
	<polygon fill="#6196AD" points="356.886,0 355.472,0 348.866,6.606 349.573,7.313 	"/>
	
		<rect x="352.498" y="14.365" transform="matrix(0.7071 0.7071 -0.7071 0.7071 117.3251 -243.8353)" fill="#6196AD" width="1" height="10.682"/>
	
		<rect x="345.422" y="23.117" transform="matrix(0.7071 0.7071 -0.7071 0.7071 120.2574 -236.759)" fill="#6196AD" width="1" height="7.333"/>
	<polygon fill="#6196AD" points="373.408,0 371.994,0 365.387,6.606 366.094,7.313 	"/>
	
		<rect x="360.754" y="6.099" transform="matrix(-0.7074 -0.7069 0.7069 -0.7074 608.7002 274.8901)" fill="#6196AD" width="1" height="10.683"/>
	<polygon fill="#6196AD" points="389.929,0 388.515,0 381.909,6.606 382.616,7.313 	"/>
	
		<rect x="377.276" y="6.1" transform="matrix(-0.7071 -0.7071 0.7071 -0.7071 636.8136 286.6591)" fill="#6196AD" width="1" height="10.683"/>
	
		<rect x="361.943" y="23.118" transform="matrix(0.7066 0.7076 -0.7076 0.7066 125.2862 -248.6049)" fill="#6196AD" width="1.001" height="7.332"/>
	
		<rect x="369.019" y="14.367" transform="matrix(0.7066 0.7076 -0.7076 0.7066 122.355 -255.6885)" fill="#6196AD" width="1.001" height="10.682"/>
	<polygon fill="#6196AD" points="406.452,0 405.038,0 398.43,6.606 399.137,7.313 	"/>
	
		<rect x="378.465" y="23.117" transform="matrix(0.7071 0.7071 -0.7071 0.7071 129.9354 -260.124)" fill="#6196AD" width="1" height="7.333"/>
	
		<rect x="385.541" y="14.366" transform="matrix(0.7071 0.7071 -0.7071 0.7071 127.0036 -267.2003)" fill="#6196AD" width="1" height="10.681"/>
	
		<rect x="393.796" y="6.099" transform="matrix(-0.7076 -0.7066 0.7066 -0.7076 665.2142 298.1532)" fill="#6196AD" width="1.001" height="10.683"/>
	
		<rect x="402.063" y="14.366" transform="matrix(0.7071 0.7071 -0.7071 0.7071 131.8432 -278.8831)" fill="#6196AD" width="1" height="10.683"/>
	<polygon fill="#6196AD" points="422.971,0 421.557,0 414.952,6.606 415.659,7.313 	"/>
	
		<rect x="410.319" y="6.099" transform="matrix(-0.7071 -0.7071 0.7071 -0.7071 693.2219 310.0233)" fill="#6196AD" width="1" height="10.683"/>
	
		<rect x="394.987" y="23.117" transform="matrix(0.7071 0.7071 -0.7071 0.7071 134.7744 -271.8064)" fill="#6196AD" width="1" height="7.333"/>
	
		<rect x="411.508" y="23.118" transform="matrix(0.7071 0.7071 -0.7071 0.7071 139.6135 -283.489)" fill="#6196AD" width="1" height="7.332"/>
	<polygon fill="#6196AD" points="439.495,0 438.081,0 431.473,6.606 432.18,7.313 	"/>
	
		<rect x="426.839" y="6.1" transform="matrix(-0.7071 -0.7071 0.7071 -0.7071 721.4241 321.705)" fill="#6196AD" width="1" height="10.682"/>
	
		<rect x="418.584" y="14.366" transform="matrix(0.7071 0.7071 -0.7071 0.7071 136.6815 -290.5648)" fill="#6196AD" width="1" height="10.681"/>
	
		<rect x="443.362" y="6.099" transform="matrix(-0.7071 -0.7071 0.7071 -0.7071 749.6298 333.3882)" fill="#6196AD" width="1" height="10.683"/>
	
		<rect x="435.106" y="14.366" transform="matrix(0.7081 0.7061 -0.7061 0.7081 141.0777 -301.8425)" fill="#6196AD" width="1.001" height="10.683"/>
	
		<rect x="428.03" y="23.118" transform="matrix(0.7071 0.7071 -0.7071 0.7071 144.4526 -295.1715)" fill="#6196AD" width="1" height="7.332"/>
	<polygon fill="#6196AD" points="456.014,0 454.6,0 447.995,6.606 448.702,7.313 	"/>
	
		<rect x="459.882" y="6.099" transform="matrix(-0.7071 -0.7071 0.7071 -0.7071 777.8323 345.0691)" fill="#6196AD" width="1" height="10.683"/>
	<polygon fill="#6196AD" points="472.538,0 471.124,0 464.516,6.606 465.223,7.313 	"/>
	
		<rect x="451.628" y="14.366" transform="matrix(0.7071 0.7071 -0.7071 0.7071 146.3602 -313.9302)" fill="#6196AD" width="1" height="10.683"/>
	
		<rect x="444.552" y="23.118" transform="matrix(0.7071 0.7071 -0.7071 0.7071 149.2922 -306.8545)" fill="#6196AD" width="1" height="7.333"/>
	
		<rect x="461.073" y="23.118" transform="matrix(0.7071 0.7071 -0.7071 0.7071 154.1306 -318.5364)" fill="#6196AD" width="1" height="7.332"/>
	<polygon fill="#6196AD" points="489.057,0 487.643,0 481.038,6.606 481.745,7.313 	"/>
	
		<rect x="468.15" y="14.367" transform="matrix(0.7071 0.7071 -0.7071 0.7071 151.1999 -325.6133)" fill="#6196AD" width="1" height="10.681"/>
	
		<rect x="476.404" y="6.1" transform="matrix(-0.7071 -0.7071 0.7071 -0.7071 806.0359 356.7524)" fill="#6196AD" width="1" height="10.682"/>
	
		<rect x="492.925" y="6.099" transform="matrix(-0.7071 -0.7071 0.7071 -0.7071 834.2406 368.4331)" fill="#6196AD" width="1" height="10.682"/>
	<polygon fill="#6196AD" points="505.581,0 504.167,0 497.559,6.606 498.266,7.313 	"/>
	
		<rect x="477.595" y="23.118" transform="matrix(0.7071 0.7071 -0.7071 0.7071 158.9706 -330.2192)" fill="#6196AD" width="1" height="7.333"/>
	
		<rect x="484.67" y="14.366" transform="matrix(0.7071 0.7071 -0.7071 0.7071 156.0383 -337.2952)" fill="#6196AD" width="1" height="10.683"/>
	
		<rect x="509.447" y="6.099" transform="matrix(-0.7071 -0.7071 0.7071 -0.7071 862.4442 380.1165)" fill="#6196AD" width="1" height="10.683"/>
	
		<rect x="494.117" y="23.118" transform="matrix(0.7071 0.7071 -0.7071 0.7071 163.8093 -341.9019)" fill="#6196AD" width="1" height="7.333"/>
	<polygon fill="#6196AD" points="522.1,0 520.688,0 514.081,6.606 514.788,7.313 	"/>
	
		<rect x="501.193" y="14.367" transform="matrix(0.7071 0.7071 -0.7071 0.7071 160.8779 -348.9781)" fill="#6196AD" width="1" height="10.681"/>
	
		<rect x="517.714" y="14.366" transform="matrix(0.7071 0.7071 -0.7071 0.7071 165.7166 -360.6608)" fill="#6196AD" width="1" height="10.682"/>
	
		<rect x="510.638" y="23.118" transform="matrix(0.7071 0.7071 -0.7071 0.7071 168.6487 -353.5841)" fill="#6196AD" width="1" height="7.333"/>
	<polygon fill="#6196AD" points="538.624,0 537.208,0 530.602,6.606 531.309,7.313 	"/>
	
		<rect x="525.968" y="6.099" transform="matrix(-0.7071 -0.7071 0.7071 -0.7071 890.6484 391.798)" fill="#6196AD" width="1" height="10.682"/>
	<polygon fill="#6196AD" points="555.143,0 553.731,0 547.672,6.057 548.379,6.764 	"/>
	
		<rect x="534.236" y="14.367" transform="matrix(0.7071 0.7071 -0.7071 0.7071 170.556 -372.343)" fill="#6196AD" width="1" height="10.681"/>
	
		<rect x="527.159" y="23.119" transform="matrix(0.7066 0.7076 -0.7076 0.7066 173.7584 -365.511)" fill="#6196AD" width="1.001" height="7.333"/>
	
		<rect x="542.763" y="5.435" transform="matrix(-0.7066 -0.7076 0.7076 -0.7066 919.2429 403.4642)" fill="#6196AD" width="1.001" height="11.459"/>
	
		<rect x="543.681" y="23.118" transform="matrix(0.7071 0.7071 -0.7071 0.7071 178.3268 -376.9491)" fill="#6196AD" width="1" height="7.333"/>
	
		<rect x="551.033" y="13.703" transform="matrix(0.7071 0.7071 -0.7071 0.7071 175.2816 -384.3006)" fill="#6196AD" width="1" height="11.46"/>
	<polygon fill="#6196AD" points="571.667,0 570.25,0 564.194,6.057 564.901,6.764 	"/>
	
		<rect x="559.56" y="5.549" transform="matrix(-0.7066 -0.7076 0.7076 -0.7066 948.1033 414.8804)" fill="#6196AD" width="1.001" height="10.681"/>
	
		<rect x="560.477" y="22.456" transform="matrix(0.7071 0.7071 -0.7071 0.7071 183.0521 -388.9059)" fill="#6196AD" width="1" height="8.11"/>
	<polygon fill="#6196AD" points="588.188,0 586.774,0 580.715,6.057 581.422,6.764 	"/>
	
		<rect x="576.082" y="5.55" transform="matrix(-0.7071 -0.7071 0.7071 -0.7071 976.5856 426.2957)" fill="#6196AD" width="1" height="10.681"/>
	
		<rect x="567.829" y="13.817" transform="matrix(0.7071 0.7071 -0.7071 0.7071 180.007 -396.2575)" fill="#6196AD" width="1" height="10.684"/>
	
		<rect x="592.603" y="5.549" transform="matrix(-0.7071 -0.7071 0.7071 -0.7071 1004.7899 437.9774)" fill="#6196AD" width="1" height="10.682"/>
	<polygon fill="#6196AD" points="604.708,0 603.293,0 597.237,6.057 597.944,6.764 	"/>
	
		<rect x="576.999" y="22.456" transform="matrix(0.7071 0.7071 -0.7071 0.7071 187.8912 -400.5884)" fill="#6196AD" width="1" height="8.11"/>
	
		<rect x="584.35" y="13.818" transform="matrix(0.7071 0.7071 -0.7071 0.7071 184.8467 -407.9396)" fill="#6196AD" width="1" height="10.684"/>
	
		<rect x="593.52" y="22.456" transform="matrix(0.7071 0.7071 -0.7071 0.7071 192.7305 -412.2707)" fill="#6196AD" width="1" height="8.11"/>
	<polygon fill="#6196AD" points="621.231,0 619.817,0 613.758,6.057 614.465,6.764 	"/>
	
		<rect x="600.872" y="13.817" transform="matrix(0.7071 0.7071 -0.7071 0.7071 189.6851 -419.6224)" fill="#6196AD" width="1" height="10.684"/>
	
		<rect x="609.125" y="5.549" transform="matrix(-0.7071 -0.7071 0.7071 -0.7071 1032.9941 449.659)" fill="#6196AD" width="1" height="10.681"/>
	<polygon fill="#6196AD" points="637.75,0 636.336,0 630.28,6.057 630.987,6.764 	"/>
	
		<rect x="625.646" y="5.549" transform="matrix(-0.7071 -0.7071 0.7071 -0.7071 1061.1978 461.3423)" fill="#6196AD" width="1" height="10.682"/>
	
		<rect x="617.393" y="13.818" transform="matrix(0.7071 0.7071 -0.7071 0.7071 194.5248 -431.3046)" fill="#6196AD" width="1" height="10.684"/>
	
		<rect x="610.042" y="22.456" transform="matrix(0.7071 0.7071 -0.7071 0.7071 197.5692 -423.9533)" fill="#6196AD" width="1" height="8.11"/>
	
		<rect x="626.563" y="22.457" transform="matrix(0.7071 0.7071 -0.7071 0.7071 202.4089 -435.6354)" fill="#6196AD" width="1" height="8.11"/>
	
		<rect x="633.915" y="13.818" transform="matrix(0.7071 0.7071 -0.7071 0.7071 199.3638 -442.987)" fill="#6196AD" width="1" height="10.684"/>
	<polygon fill="#6196AD" points="654.274,0 652.86,0 646.801,6.057 647.508,6.764 	"/>
	
		<rect x="642.168" y="5.549" transform="matrix(-0.7071 -0.7071 0.7071 -0.7071 1089.4021 473.0239)" fill="#6196AD" width="1" height="10.681"/>
	
		<rect x="650.436" y="13.818" transform="matrix(0.7071 0.7071 -0.7071 0.7071 204.2029 -454.6695)" fill="#6196AD" width="1" height="10.684"/>
	
		<rect x="643.085" y="22.456" transform="matrix(0.7071 0.7071 -0.7071 0.7071 207.2476 -447.3181)" fill="#6196AD" width="1" height="8.11"/>
	
		<rect x="658.689" y="5.549" transform="matrix(-0.7071 -0.7071 0.7071 -0.7071 1117.606 484.7064)" fill="#6196AD" width="1" height="10.681"/>
	<polygon fill="#6196AD" points="670.793,0 669.379,0 663.323,6.057 664.03,6.764 	"/>
	
		<rect x="666.958" y="13.818" transform="matrix(0.7071 0.7071 -0.7071 0.7071 209.0419 -466.3519)" fill="#6196AD" width="1" height="10.684"/>
	<polygon fill="#6196AD" points="687.317,0 685.903,0 679.844,6.057 680.551,6.764 	"/>
	
		<rect x="659.606" y="22.457" transform="matrix(0.7071 0.7071 -0.7071 0.7071 212.087 -459.0003)" fill="#6196AD" width="1" height="8.11"/>
	
		<rect x="675.21" y="5.547" transform="matrix(-0.7071 -0.7071 0.7071 -0.7071 1145.8086 496.3873)" fill="#6196AD" width="1" height="10.683"/>
	<polygon fill="#6196AD" points="703.836,0 702.422,0 696.366,6.057 697.073,6.764 	"/>
	
		<rect x="691.732" y="5.549" transform="matrix(-0.7071 -0.7071 0.7071 -0.7071 1174.0138 508.0713)" fill="#6196AD" width="1" height="10.681"/>
	
		<rect x="676.128" y="22.457" transform="matrix(0.7071 0.7071 -0.7071 0.7071 216.926 -470.6828)" fill="#6196AD" width="1" height="8.11"/>
	
		<rect x="683.479" y="13.818" transform="matrix(0.7071 0.7071 -0.7071 0.7071 213.8809 -478.0344)" fill="#6196AD" width="1" height="10.684"/>
	
		<rect x="692.649" y="22.457" transform="matrix(0.7071 0.7071 -0.7071 0.7071 221.765 -482.3653)" fill="#6196AD" width="1" height="8.11"/>
	
		<rect x="708.253" y="5.547" transform="matrix(-0.7071 -0.7071 0.7071 -0.7071 1202.2164 519.7522)" fill="#6196AD" width="1" height="10.683"/>
	<polygon fill="#6196AD" points="720.36,0 718.946,0 712.887,6.057 713.594,6.764 	"/>
	
		<rect x="700.001" y="13.818" transform="matrix(0.7071 0.7071 -0.7071 0.7071 218.7199 -489.7168)" fill="#6196AD" width="1" height="10.684"/>
	
		<rect x="709.17" y="22.457" transform="matrix(0.7071 0.7071 -0.7071 0.7071 226.6041 -494.0477)" fill="#6196AD" width="1" height="8.11"/>
	
		<rect x="724.775" y="5.548" transform="matrix(-0.7071 -0.7071 0.7071 -0.7071 1230.4221 531.4354)" fill="#6196AD" width="1" height="10.682"/>
	
		<rect x="716.522" y="13.819" transform="matrix(0.7066 0.7076 -0.7076 0.7066 223.919 -501.7394)" fill="#6196AD" width="1.001" height="10.683"/>
	<polygon fill="#6196AD" points="736.879,0 735.465,0 729.409,6.057 730.116,6.764 	"/>
	
		<rect x="741.295" y="5.547" transform="matrix(-0.7071 -0.7071 0.7071 -0.7071 1258.6243 543.1171)" fill="#6196AD" width="1" height="10.683"/>
	
		<rect x="733.044" y="13.818" transform="matrix(0.7071 0.7071 -0.7071 0.7071 228.398 -513.0817)" fill="#6196AD" width="1" height="10.684"/>
	<polygon fill="#6196AD" points="753.403,0 751.989,0 745.93,6.057 746.637,6.764 	"/>
	
		<rect x="725.693" y="22.456" transform="matrix(0.7071 0.7071 -0.7071 0.7071 231.4434 -505.7309)" fill="#6196AD" width="1" height="8.111"/>
	<polygon fill="#6196AD" points="769.922,0 768.508,0 762.452,6.057 763.159,6.764 	"/>
	
		<rect x="757.817" y="5.547" transform="matrix(-0.7071 -0.7071 0.7071 -0.7071 1286.8282 554.7996)" fill="#6196AD" width="1" height="10.683"/>
	
		<rect x="749.565" y="13.819" transform="matrix(0.7071 0.7071 -0.7071 0.7071 233.2377 -524.7639)" fill="#6196AD" width="1" height="10.684"/>
	
		<rect x="742.213" y="22.457" transform="matrix(0.7071 0.7071 -0.7071 0.7071 236.2821 -517.4127)" fill="#6196AD" width="1" height="8.11"/>
	<polygon fill="#6196AD" points="786.446,0 785.032,0 778.973,6.057 779.68,6.764 	"/>
	
		<rect x="774.337" y="5.548" transform="matrix(-0.7071 -0.7071 0.7071 -0.7071 1315.0309 566.4805)" fill="#6196AD" width="1" height="10.681"/>
	
		<rect x="766.086" y="13.818" transform="matrix(0.7071 0.7071 -0.7071 0.7071 238.076 -536.4467)" fill="#6196AD" width="1" height="10.684"/>
	
		<rect x="758.737" y="22.457" transform="matrix(0.7071 0.7071 -0.7071 0.7071 241.1221 -529.0963)" fill="#6196AD" width="1" height="8.11"/>
	<polygon fill="#6196AD" points="801.583,1.383 801.583,0 801.551,0 795.495,6.057 796.202,6.764 	"/>
	
		<rect x="790.86" y="5.547" transform="matrix(-0.7071 -0.7071 0.7071 -0.7071 1343.2361 578.1645)" fill="#6196AD" width="1" height="10.683"/>
	
		<rect x="782.61" y="13.819" transform="matrix(0.7071 0.7071 -0.7071 0.7071 242.9163 -548.1302)" fill="#6196AD" width="1" height="10.684"/>
	
		<rect x="775.257" y="22.456" transform="matrix(0.7071 0.7071 -0.7071 0.7071 245.9605 -540.7783)" fill="#6196AD" width="1" height="8.111"/>
	<polygon fill="#6196AD" points="801.583,16.49 795.495,22.579 796.202,23.286 801.583,17.904 	"/>
	
		<rect x="791.78" y="22.458" transform="matrix(0.7071 0.7071 -0.7071 0.7071 250.8005 -552.4611)" fill="#6196AD" width="1" height="8.11"/>
	<polygon fill="#6196AD" points="0,21.214 0,22.628 2.83,25.458 3.537,26.165 7.099,29.728 7.806,29.021 4.244,25.458 3.537,24.751 
			"/>
	<polygon fill="#6196AD" points="12.505,17.198 11.798,16.491 4.244,8.937 3.537,8.229 0,4.692 0,6.106 2.83,8.937 3.537,9.644 
		11.091,17.198 11.798,17.905 19.352,25.458 20.059,26.165 23.621,29.728 24.328,29.021 20.766,25.458 20.059,24.751 	"/>
	<polygon fill="#6196AD" points="29.026,17.198 28.319,16.491 20.766,8.937 20.059,8.229 12.505,0.676 11.829,0 10.415,0 
		11.091,0.676 11.798,1.383 19.352,8.937 20.059,9.644 27.612,17.198 28.319,17.905 35.873,25.458 36.58,26.165 40.142,29.728 
		40.849,29.021 37.287,25.458 36.58,24.751 	"/>
	<polygon fill="#6196AD" points="45.548,17.198 44.841,16.491 37.287,8.937 36.58,8.229 29.026,0.676 28.35,0 26.936,0 
		27.612,0.676 28.319,1.383 35.873,8.937 36.58,9.644 44.134,17.198 44.841,17.905 52.395,25.458 53.102,26.165 56.664,29.728 
		57.371,29.021 53.809,25.458 53.102,24.751 	"/>
	<polygon fill="#6196AD" points="62.069,17.198 61.362,16.491 53.809,8.937 53.102,8.229 45.548,0.676 44.872,0 43.458,0 
		44.134,0.676 44.841,1.383 52.395,8.937 53.102,9.644 60.655,17.198 61.362,17.905 68.916,25.458 69.623,26.165 73.185,29.728 
		73.892,29.021 70.33,25.458 69.623,24.751 	"/>
	<polygon fill="#6196AD" points="78.591,17.198 77.884,16.491 70.33,8.937 69.623,8.229 62.069,0.676 61.393,0 59.979,0 
		60.655,0.676 61.362,1.383 68.916,8.937 69.623,9.644 77.177,17.198 77.884,17.905 85.438,25.458 86.145,26.165 89.707,29.728 
		90.414,29.021 86.852,25.458 86.145,24.751 	"/>
	<polygon fill="#6196AD" points="95.112,17.198 94.405,16.491 86.852,8.937 86.145,8.229 78.591,0.676 77.915,0 76.5,0 
		77.177,0.676 77.884,1.383 85.438,8.937 86.145,9.644 93.698,17.198 94.405,17.905 101.959,25.458 102.666,26.165 106.228,29.728 
		106.935,29.021 103.373,25.458 102.666,24.751 	"/>
	<polygon fill="#6196AD" points="111.634,17.198 110.927,16.491 103.373,8.937 102.666,8.229 95.112,0.676 94.436,0 93.022,0 
		93.698,0.676 94.405,1.383 101.959,8.937 102.666,9.644 110.22,17.198 110.927,17.905 118.48,25.458 119.188,26.165 122.75,29.728 
		123.457,29.021 119.895,25.458 119.188,24.751 	"/>
	<polygon fill="#6196AD" points="128.155,17.198 127.448,16.491 119.895,8.937 119.188,8.229 111.634,0.676 110.958,0 109.543,0 
		110.22,0.676 110.927,1.383 118.48,8.937 119.188,9.644 126.741,17.198 127.448,17.905 135.002,25.458 135.709,26.165 
		139.271,29.728 139.978,29.021 136.416,25.458 135.709,24.751 	"/>
	<polygon fill="#6196AD" points="144.677,17.197 143.97,16.49 136.416,8.937 135.709,8.229 128.155,0.676 127.479,0 126.065,0 
		126.741,0.676 127.448,1.383 135.002,8.937 135.709,9.644 143.263,17.197 143.97,17.904 151.523,25.458 152.23,26.165 
		155.792,29.728 156.5,29.021 152.938,25.458 152.23,24.751 	"/>
	<polygon fill="#6196AD" points="161.198,17.197 160.491,16.49 152.938,8.937 152.23,8.229 144.677,0.676 144,0 142.586,0 
		143.263,0.676 143.97,1.383 151.523,8.937 152.23,9.644 159.784,17.197 160.491,17.904 168.045,25.458 168.752,26.165 
		172.314,29.728 173.021,29.021 169.459,25.458 168.752,24.751 	"/>
	<polygon fill="#6196AD" points="177.72,17.197 177.013,16.49 169.459,8.937 168.752,8.229 161.198,0.676 160.522,0 159.108,0 
		159.784,0.676 160.491,1.383 168.045,8.937 168.752,9.644 176.306,17.197 177.013,17.904 184.566,25.458 185.273,26.165 
		188.835,29.728 189.542,29.021 185.98,25.458 185.273,24.751 	"/>
	<polygon fill="#6196AD" points="194.241,17.197 193.534,16.49 185.98,8.937 185.273,8.229 177.72,0.676 177.043,0 175.629,0 
		176.306,0.676 177.013,1.383 184.566,8.937 185.273,9.644 192.827,17.197 193.534,17.904 201.088,25.458 201.795,26.165 
		205.357,29.728 206.064,29.021 202.502,25.458 201.795,24.751 	"/>
	<polygon fill="#6196AD" points="210.762,17.197 210.055,16.49 202.502,8.937 201.795,8.229 194.241,0.676 193.565,0 192.151,0 
		192.827,0.676 193.534,1.383 201.088,8.937 201.795,9.644 209.348,17.197 210.055,17.904 217.61,25.458 218.317,26.165 
		221.878,29.728 222.585,29.021 219.024,25.458 218.317,24.751 	"/>
	<polygon fill="#6196AD" points="227.284,17.197 226.577,16.49 219.024,8.937 218.317,8.229 210.762,0.676 210.086,0 208.672,0 
		209.348,0.676 210.055,1.383 217.61,8.937 218.317,9.644 225.87,17.197 226.577,17.904 234.131,25.458 234.838,26.165 
		238.4,29.728 239.107,29.021 235.545,25.458 234.838,24.751 	"/>
	<polygon fill="#6196AD" points="243.805,17.197 243.098,16.49 235.545,8.937 234.838,8.229 227.284,0.676 226.608,0 225.194,0 
		225.87,0.676 226.577,1.383 234.131,8.937 234.838,9.644 242.391,17.197 243.098,17.904 250.653,25.458 251.36,26.165 
		254.921,29.728 255.628,29.021 252.067,25.458 251.36,24.751 	"/>
	<polygon fill="#6196AD" points="260.327,17.197 259.62,16.49 252.067,8.937 251.36,8.229 243.805,0.676 243.129,0 241.715,0 
		242.391,0.676 243.098,1.383 250.653,8.937 251.36,9.644 258.913,17.197 259.62,17.904 265.551,23.835 266.258,24.542 
		271.443,29.728 272.15,29.021 266.965,23.835 266.258,23.128 	"/>
	<polygon fill="#6196AD" points="275.225,15.574 274.518,14.867 268.588,8.937 267.881,8.229 260.327,0.676 259.651,0 258.237,0 
		258.913,0.676 259.62,1.383 267.174,8.937 267.881,9.644 273.811,15.574 274.518,16.281 282.073,23.835 282.78,24.542 
		287.964,29.728 288.671,29.021 283.487,23.835 282.78,23.128 	"/>
	<polygon fill="#6196AD" points="291.747,15.574 291.04,14.867 283.487,7.313 282.78,6.606 276.848,0.676 276.172,0 274.758,0 
		275.434,0.676 276.141,1.383 282.073,7.313 282.78,8.021 290.333,15.574 291.04,16.281 298.594,23.835 299.301,24.542 
		304.486,29.728 305.193,29.021 300.008,23.835 299.301,23.128 	"/>
	<polygon fill="#6196AD" points="308.268,15.574 307.561,14.867 300.008,7.313 299.301,6.606 292.694,0 291.28,0 298.594,7.313 
		299.301,8.021 306.854,15.574 307.561,16.281 315.116,23.835 315.823,24.542 321.007,29.728 321.714,29.021 316.53,23.835 
		315.823,23.128 	"/>
	<polygon fill="#6196AD" points="324.79,15.574 324.083,14.867 316.53,7.313 315.823,6.606 309.215,0 307.801,0 315.116,7.313 
		315.823,8.021 323.375,15.574 324.083,16.281 331.637,23.835 332.344,24.542 337.529,29.728 338.236,29.021 333.051,23.835 
		332.344,23.128 	"/>
	<polygon fill="#6196AD" points="341.311,15.574 340.604,14.867 333.051,7.313 332.344,6.606 325.737,0 324.323,0 331.637,7.313 
		332.344,8.021 339.897,15.574 340.604,16.281 348.159,23.835 348.866,24.542 354.05,29.728 354.757,29.021 349.573,23.835 
		348.866,23.128 	"/>
	<polygon fill="#6196AD" points="357.833,15.574 357.125,14.867 349.573,7.313 348.866,6.606 342.258,0 340.844,0 348.159,7.313 
		348.866,8.021 356.418,15.574 357.125,16.281 364.68,23.835 365.387,24.542 370.572,29.728 371.279,29.021 366.094,23.835 
		365.387,23.128 	"/>
	<polygon fill="#6196AD" points="374.354,15.574 373.647,14.867 366.094,7.313 365.387,6.606 358.78,0 357.366,0 364.68,7.313 
		365.387,8.021 372.94,15.574 373.647,16.281 381.202,23.835 381.909,24.542 387.093,29.728 387.8,29.021 382.616,23.835 
		381.909,23.128 	"/>
	<polygon fill="#6196AD" points="390.875,15.574 390.168,14.867 382.616,7.313 381.909,6.606 375.301,0 373.887,0 381.202,7.313 
		381.909,8.021 389.461,15.574 390.168,16.281 397.723,23.835 398.43,24.542 403.616,29.728 404.323,29.021 399.137,23.835 
		398.43,23.128 	"/>
	<polygon fill="#6196AD" points="407.397,15.574 406.69,14.867 399.137,7.313 398.43,6.606 391.823,0 390.409,0 397.723,7.313 
		398.43,8.021 405.983,15.574 406.69,16.281 414.245,23.835 414.952,24.542 420.135,29.728 420.842,29.021 415.659,23.835 
		414.952,23.128 	"/>
	<polygon fill="#6196AD" points="423.918,15.574 423.211,14.867 415.659,7.313 414.952,6.606 408.344,0 406.93,0 414.245,7.313 
		414.952,8.021 422.504,15.574 423.211,16.281 430.766,23.835 431.473,24.542 436.659,29.728 437.366,29.021 432.18,23.835 
		431.473,23.128 	"/>
	<polygon fill="#6196AD" points="440.44,15.574 439.733,14.867 432.18,7.313 431.473,6.606 424.866,0 423.452,0 430.766,7.313 
		431.473,8.021 439.026,15.574 439.733,16.281 447.288,23.835 447.995,24.542 453.178,29.728 453.885,29.021 448.702,23.835 
		447.995,23.128 	"/>
	<polygon fill="#6196AD" points="456.961,15.574 456.254,14.867 448.702,7.313 447.995,6.606 441.387,0 439.973,0 447.288,7.313 
		447.995,8.021 455.547,15.574 456.254,16.281 463.809,23.835 464.516,24.542 469.702,29.728 470.409,29.021 465.223,23.835 
		464.516,23.128 	"/>
	<polygon fill="#6196AD" points="473.483,15.574 472.776,14.867 465.223,7.313 464.516,6.606 457.909,0 456.495,0 463.809,7.313 
		464.516,8.021 472.069,15.574 472.776,16.281 480.331,23.835 481.038,24.542 486.221,29.728 486.928,29.021 481.745,23.835 
		481.038,23.128 	"/>
	<polygon fill="#6196AD" points="490.004,15.574 489.297,14.867 481.745,7.313 481.038,6.606 474.43,0 473.016,0 480.331,7.313 
		481.038,8.021 488.59,15.574 489.297,16.281 496.852,23.835 497.559,24.542 502.745,29.728 503.452,29.021 498.266,23.835 
		497.559,23.128 	"/>
	<polygon fill="#6196AD" points="506.526,15.574 505.819,14.867 498.266,7.313 497.559,6.606 490.952,0 489.538,0 496.852,7.313 
		497.559,8.021 505.112,15.574 505.819,16.281 513.374,23.835 514.081,24.542 519.264,29.728 519.971,29.021 514.788,23.835 
		514.081,23.128 	"/>
	<polygon fill="#6196AD" points="523.047,15.574 522.34,14.867 514.788,7.313 514.081,6.606 507.473,0 506.059,0 513.374,7.313 
		514.081,8.021 521.633,15.574 522.34,16.281 529.895,23.835 530.602,24.542 535.788,29.728 536.495,29.021 531.309,23.835 
		530.602,23.128 	"/>
	<polygon fill="#6196AD" points="539.569,15.574 538.862,14.867 531.309,7.313 530.602,6.606 523.995,0 522.581,0 529.895,7.313 
		530.602,8.021 538.155,15.574 538.862,16.281 546.417,23.835 547.124,24.542 552.307,29.728 553.014,29.021 547.831,23.835 
		547.124,23.128 	"/>
	<polygon fill="#6196AD" points="556.641,15.024 555.934,14.317 548.379,6.764 547.672,6.057 541.616,0 540.202,0 546.965,6.764 
		547.672,7.471 555.227,15.024 555.934,15.731 563.487,23.286 564.194,23.993 569.928,29.728 570.635,29.021 564.901,23.286 
		564.194,22.579 	"/>
	<polygon fill="#6196AD" points="573.163,15.024 572.456,14.317 564.901,6.764 564.194,6.057 558.137,0 556.723,0 563.487,6.764 
		564.194,7.471 571.749,15.024 572.456,15.731 580.008,23.286 580.715,23.993 586.452,29.728 587.159,29.021 581.422,23.286 
		580.715,22.579 	"/>
	<polygon fill="#6196AD" points="589.684,15.024 588.977,14.317 581.422,6.764 580.715,6.057 574.659,0 573.245,0 580.008,6.764 
		580.715,7.471 588.27,15.024 588.977,15.731 596.53,23.286 597.237,23.993 602.971,29.728 603.678,29.021 597.944,23.286 
		597.237,22.579 	"/>
	<polygon fill="#6196AD" points="606.206,15.024 605.499,14.317 597.944,6.764 597.237,6.057 591.18,0 589.766,0 596.53,6.764 
		597.237,7.471 604.792,15.024 605.499,15.731 613.051,23.286 613.758,23.993 619.495,29.728 620.202,29.021 614.465,23.286 
		613.758,22.579 	"/>
	<polygon fill="#6196AD" points="622.727,15.024 622.02,14.317 614.465,6.764 613.758,6.057 607.702,0 606.288,0 613.051,6.764 
		613.758,7.471 621.313,15.024 622.02,15.731 629.573,23.286 630.28,23.993 636.014,29.728 636.721,29.021 630.987,23.286 
		630.28,22.579 	"/>
	<polygon fill="#6196AD" points="639.249,15.024 638.542,14.317 630.987,6.764 630.28,6.057 624.223,0 622.809,0 629.573,6.764 
		630.28,7.471 637.834,15.024 638.542,15.731 646.094,23.286 646.801,23.993 652.538,29.728 653.245,29.021 647.508,23.286 
		646.801,22.579 	"/>
	<polygon fill="#6196AD" points="655.77,15.024 655.063,14.317 647.508,6.764 646.801,6.057 640.745,0 639.331,0 646.094,6.764 
		646.801,7.471 654.356,15.024 655.063,15.731 662.616,23.286 663.323,23.993 669.057,29.728 669.764,29.021 664.03,23.286 
		663.323,22.579 	"/>
	<polygon fill="#6196AD" points="672.292,15.024 671.584,14.317 664.03,6.764 663.323,6.057 657.266,0 655.852,0 662.616,6.764 
		663.323,7.471 670.877,15.024 671.584,15.731 679.137,23.286 679.844,23.993 685.581,29.728 686.288,29.021 680.551,23.286 
		679.844,22.579 	"/>
	<polygon fill="#6196AD" points="688.813,15.024 688.106,14.317 680.551,6.764 679.844,6.057 673.788,0 672.374,0 679.137,6.764 
		679.844,7.471 687.399,15.024 688.106,15.731 695.659,23.286 696.366,23.993 702.1,29.728 702.807,29.021 697.073,23.286 
		696.366,22.579 	"/>
	<polygon fill="#6196AD" points="705.334,15.024 704.627,14.317 697.073,6.764 696.366,6.057 690.309,0 688.895,0 695.659,6.764 
		696.366,7.471 703.92,15.024 704.627,15.731 712.18,23.286 712.887,23.993 718.624,29.728 719.331,29.021 713.594,23.286 
		712.887,22.579 	"/>
	<polygon fill="#6196AD" points="721.856,15.024 721.149,14.317 713.594,6.764 712.887,6.057 706.831,0 705.417,0 712.18,6.764 
		712.887,7.471 720.442,15.024 721.149,15.731 728.702,23.286 729.409,23.993 735.143,29.728 735.85,29.021 730.116,23.286 
		729.409,22.579 	"/>
	<polygon fill="#6196AD" points="738.377,15.024 737.67,14.317 730.116,6.764 729.409,6.057 723.352,0 721.938,0 728.702,6.764 
		729.409,7.471 736.963,15.024 737.67,15.731 745.223,23.286 745.93,23.993 751.667,29.728 752.374,29.021 746.637,23.286 
		745.93,22.579 	"/>
	<polygon fill="#6196AD" points="754.899,15.024 754.192,14.317 746.637,6.764 745.93,6.057 739.874,0 738.459,0 745.223,6.764 
		745.93,7.471 753.485,15.024 754.192,15.731 761.745,23.286 762.452,23.993 768.188,29.728 768.893,29.021 763.159,23.286 
		762.452,22.579 	"/>
	<polygon fill="#6196AD" points="771.42,15.024 770.713,14.317 763.159,6.764 762.452,6.057 756.395,0 754.981,0 761.745,6.764 
		762.452,7.471 770.006,15.024 770.713,15.731 778.266,23.286 778.973,23.993 784.708,29.728 785.417,29.021 779.68,23.286 
		778.973,22.579 	"/>
	<polygon fill="#6196AD" points="787.942,15.024 787.235,14.317 779.68,6.764 778.973,6.057 772.917,0 771.502,0 778.266,6.764 
		778.973,7.471 786.528,15.024 787.235,15.731 794.788,23.286 795.495,23.993 801.231,29.728 801.583,29.374 801.583,28.667 
		796.202,23.286 795.495,22.579 	"/>
	<polygon fill="#6196AD" points="801.583,13.56 801.583,12.146 796.202,6.764 795.495,6.057 789.438,0 788.024,0 794.788,6.764 
		795.495,7.471 	"/>
</g>
</svg>
