<?xml version="1.0" encoding="utf-8"?>
<!-- Generator: Adobe Illustrator 16.0.4, SVG Export Plug-In . SVG Version: 6.00 Build 0)  -->
<!DOCTYPE svg PUBLIC "-//W3C//DTD SVG 1.1//EN" "http://www.w3.org/Graphics/SVG/1.1/DTD/svg11.dtd">
<svg version="1.1" id="Layer_1" xmlns="http://www.w3.org/2000/svg" xmlns:xlink="http://www.w3.org/1999/xlink" x="0px" y="0px"
	 width="58.225px" height="78.059px" viewBox="0 0 58.225 78.059" enable-background="new 0 0 58.225 78.059" xml:space="preserve">
<g>
	<path fill="#6196AD" d="M24.72,41.938C19.61,48.86,11.899,59.423,7.985,64.725c-0.345,0.465-0.676,0.926-1.021,1.36
		c-0.356,0.426-0.676,0.863-0.933,1.329c-0.532,0.919-1.038,1.791-1.513,2.609c-0.957,1.634-1.766,3.076-2.435,4.263
		c-1.331,2.377-2.231,3.563-2.064,3.754c0.167,0.189,1.101-1.107,2.979-3.08c0.938-0.987,2.078-2.186,3.356-3.58
		c0.644-0.695,1.328-1.436,2.049-2.215c0.37-0.383,0.694-0.816,0.996-1.282c0.312-0.458,0.656-0.909,0.998-1.376
		c3.974-5.382,11.771-16.062,16.967-23.1C26.466,42.981,25.584,42.485,24.72,41.938z"/>
</g>
<path fill="none" stroke="#6196AD" stroke-miterlimit="10" d="M17.312,26.812c0,0,1.668,2.308,5.787-1.083
	c4.121-3.391,7.387-8.544,2.524-9.232C22.839,16.101,14.134,24.047,17.312,26.812z"/>
<path fill="none" stroke="#6196AD" stroke-width="2" stroke-miterlimit="10" d="M24.632,13.985c0,0,11.312-4.104,23.63,9.25
	c12.314,13.354-2.821,26.585-8.568,27.001c-5.242,0.381-15.752-0.809-21.374-9.246C12.696,32.55,10.701,21.842,24.632,13.985z"/>
<path fill="#6196AD" d="M18.658,23.891c0,0,3.887-5.42,6.633-5.459c2.747-0.039,3.146,1.501,1.041,4.001
	C22.003,27.579,15.383,29.706,18.658,23.891z"/>
<path fill="#6196AD" d="M56.303,1.621l-0.125,0.094c0,0-1.086,1.167-2.97,3.135c-0.938,0.986-2.082,2.183-3.358,3.578
	c-0.644,0.695-1.327,1.435-2.05,2.214c-0.715,0.784-1.256,1.765-1.979,2.67c-1.045,1.416-2.157,2.922-3.322,4.5
	c0.752,0.607,1.509,1.259,2.273,1.974c1.216-1.646,2.376-3.219,3.463-4.69c0.652-0.957,1.43-1.763,1.969-2.678
	c0.532-0.919,1.037-1.791,1.513-2.609c0.958-1.632,1.766-3.077,2.431-4.265C55.475,3.163,56.452,1.759,56.303,1.621z"/>
<circle fill="#6196AD" cx="54.889" cy="3.335" r="3.335"/>
</svg>
