<?xml version="1.0" encoding="utf-8"?>
<!-- Generator: Adobe Illustrator 16.0.4, SVG Export Plug-In . SVG Version: 6.00 Build 0)  -->
<!DOCTYPE svg PUBLIC "-//W3C//DTD SVG 1.1//EN" "http://www.w3.org/Graphics/SVG/1.1/DTD/svg11.dtd">
<svg version="1.1" id="Layer_1" xmlns="http://www.w3.org/2000/svg" xmlns:xlink="http://www.w3.org/1999/xlink" x="0px" y="0px"
	 width="184.879px" height="182.527px" viewBox="0 0 184.879 182.527" enable-background="new 0 0 184.879 182.527"
	 xml:space="preserve">
<circle fill="none" stroke="#6196AD" stroke-miterlimit="10" cx="92.44" cy="91.263" r="53.55"/>
<circle fill="none" stroke="#6196AD" stroke-linecap="round" stroke-linejoin="round" stroke-miterlimit="10" stroke-dasharray="0.5,7" cx="92.439" cy="91.263" r="48.195"/>
<path fill="none" stroke="#6196AD" stroke-width="2" stroke-miterlimit="10" d="M183.879,91.264c0,5.332-3.322,10.307-4.211,15.385
	c-0.915,5.221,0.492,11.026-1.281,15.896c-1.804,4.957-6.632,8.498-9.238,13.004c-2.631,4.55-3.301,10.492-6.662,14.492
	c-3.368,4.012-9.11,5.697-13.123,9.066c-4,3.358-6.648,8.727-11.196,11.356c-4.506,2.607-10.474,2.236-15.431,4.041
	c-4.869,1.771-9.194,5.908-14.416,6.822c-5.077,0.889-10.549-1.506-15.88-1.506c-5.332,0-10.805,2.395-15.881,1.506
	c-5.222-0.914-9.547-5.051-14.417-6.824c-4.956-1.805-10.924-1.432-15.431-4.039c-4.548-2.633-7.197-7.998-11.197-11.358
	c-4.012-3.369-9.754-5.056-13.123-9.066c-3.359-4-4.029-9.942-6.66-14.492c-2.607-4.506-7.436-8.045-9.239-13.002
	c-1.772-4.871-0.366-10.678-1.28-15.897C4.322,101.571,1,96.596,1,91.264s3.322-10.31,4.211-15.386
	c0.914-5.221-0.492-11.026,1.281-15.897c1.804-4.957,6.631-8.496,9.238-13.002c2.631-4.549,3.301-10.492,6.66-14.492
	c3.37-4.012,9.112-5.697,13.124-9.066c4-3.358,6.649-8.727,11.198-11.358c4.506-2.607,10.473-2.234,15.43-4.039
	c4.869-1.773,9.194-5.91,14.416-6.824c5.077-0.889,10.549,1.506,15.881,1.506c5.331,0,10.803-2.395,15.881-1.506
	c5.221,0.914,9.546,5.051,14.416,6.824c4.955,1.805,10.923,1.434,15.43,4.041c4.548,2.631,7.197,7.998,11.197,11.356
	c4.013,3.369,9.755,5.056,13.123,9.066c3.361,4,4.029,9.943,6.662,14.492c2.606,4.506,7.435,8.047,9.238,13.002
	c1.772,4.871,0.365,10.678,1.28,15.897C180.557,80.956,183.879,85.932,183.879,91.264z"/>
<path fill="none" stroke="#6196AD" stroke-width="0.5" stroke-miterlimit="10" d="M108.546,177.315
	c-1.553,0-3.469-0.361-5.498-0.744c-2.536-0.479-5.413-1.021-8.455-1.021c-3.043,0-5.918,0.541-8.455,1.021
	c-2.029,0.383-3.945,0.744-5.5,0.744c-0.457,0-0.853-0.029-1.212-0.092c-1.804-0.318-3.979-1.609-6.282-2.979
	c-2.168-1.289-4.625-2.748-7.387-3.754c-2.815-1.025-5.672-1.496-8.193-1.912c-2.615-0.432-5.085-0.838-6.607-1.721
	c-1.555-0.898-3.147-2.849-4.834-4.91c-1.607-1.969-3.43-4.199-5.704-6.109c-2.285-1.92-4.803-3.334-7.024-4.582
	c-2.32-1.303-4.51-2.53-5.657-3.897c-1.142-1.359-1.974-3.726-2.854-6.23c-0.846-2.405-1.805-5.135-3.301-7.721
	c-1.481-2.559-3.355-4.732-5.008-6.648c-1.744-2.024-3.392-3.936-4.012-5.639c-0.596-1.637-0.564-4.133-0.534-6.774
	c0.03-2.562,0.066-5.466-0.452-8.431c-0.507-2.885-1.516-5.554-2.405-7.909c-0.95-2.512-1.847-4.882-1.847-6.739
	c0-1.859,0.896-4.232,1.847-6.744c0.89-2.355,1.899-5.022,2.403-7.908c0.521-2.966,0.484-5.869,0.455-8.431
	c-0.031-2.644-0.062-5.14,0.534-6.774c0.619-1.703,2.268-3.614,4.011-5.638c1.654-1.918,3.527-4.09,5.008-6.649
	c1.496-2.586,2.455-5.314,3.302-7.722c0.881-2.505,1.712-4.871,2.854-6.229c1.148-1.365,3.339-2.597,5.657-3.898
	c2.223-1.247,4.74-2.661,7.023-4.578c2.276-1.912,4.1-4.146,5.709-6.113c1.685-2.062,3.275-4.011,4.832-4.911
	c1.521-0.882,3.992-1.289,6.606-1.72c2.521-0.415,5.377-0.887,8.194-1.912c2.76-1.005,5.217-2.465,7.384-3.753
	c2.304-1.369,4.479-2.661,6.284-2.978c0.353-0.062,0.761-0.095,1.213-0.095c1.553,0,3.469,0.362,5.498,0.745
	c2.537,0.479,5.412,1.021,8.455,1.021s5.918-0.542,8.455-1.021c2.029-0.383,3.945-0.745,5.498-0.745c0.458,0,0.854,0.03,1.213,0.095
	c1.805,0.315,3.98,1.607,6.283,2.978c2.168,1.288,4.624,2.748,7.387,3.753c2.814,1.025,5.67,1.497,8.189,1.912
	c2.615,0.433,5.087,0.84,6.609,1.723c1.556,0.899,3.146,2.85,4.832,4.909c1.608,1.969,3.434,4.201,5.709,6.112
	c2.282,1.917,4.801,3.331,7.023,4.578c2.316,1.303,4.508,2.532,5.654,3.898c1.144,1.358,1.975,3.726,2.854,6.229
	c0.847,2.406,1.806,5.136,3.302,7.722c1.481,2.561,3.354,4.733,5.008,6.649c1.744,2.023,3.394,3.936,4.013,5.639
	c0.595,1.634,0.565,4.129,0.534,6.771c-0.031,2.562-0.065,5.467,0.453,8.434c0.506,2.884,1.515,5.552,2.404,7.908
	c0.95,2.512,1.846,4.884,1.846,6.743c0,1.855-0.896,4.229-1.846,6.738c-0.891,2.356-1.898,5.025-2.404,7.912
	c-0.52,2.965-0.484,5.869-0.455,8.433c0.033,2.641,0.062,5.137-0.533,6.77c-0.62,1.707-2.268,3.617-4.014,5.644
	c-1.651,1.916-3.524,4.09-5.006,6.647c-1.496,2.586-2.455,5.314-3.302,7.721c-0.881,2.504-1.713,4.871-2.854,6.23
	c-1.147,1.367-3.338,2.596-5.656,3.897c-2.223,1.248-4.74,2.662-7.023,4.58c-2.274,1.91-4.1,4.144-5.707,6.111
	c-1.686,2.062-3.276,4.01-4.832,4.908c-1.522,0.883-3.994,1.291-6.608,1.723c-2.521,0.416-5.376,0.887-8.19,1.912
	c-2.763,1.004-5.221,2.465-7.389,3.754c-2.303,1.367-4.479,2.658-6.281,2.978C109.406,177.284,108.998,177.315,108.546,177.315z"/>
<text transform="matrix(1 0 0 1 83.8281 28.0486)" fill="#6196AD" font-family="'Gotham-Bold'" font-size="20.9406">A</text>
<text transform="matrix(1 0 0 1 83.8281 28.0486)" fill="none" stroke="#6196AD" stroke-miterlimit="10" font-family="'Gotham-Bold'" font-size="20.9406">A</text>
<text transform="matrix(1 0 0 1 14.7998 97.2224)" fill="#6196AD" font-family="'Gotham-Bold'" font-size="20.9406">P</text>
<text transform="matrix(1 0 0 1 14.7998 97.2224)" fill="none" stroke="#6196AD" stroke-miterlimit="10" font-family="'Gotham-Bold'" font-size="20.9406">P</text>
<text transform="matrix(1 0 0 1 154.5713 97.2244)" fill="#6196AD" font-family="'Gotham-Bold'" font-size="20.9406">M</text>
<text transform="matrix(1 0 0 1 154.5713 97.2244)" fill="none" stroke="#6196AD" stroke-miterlimit="10" font-family="'Gotham-Bold'" font-size="20.9406">M</text>
<text transform="matrix(1 0 0 1 83.0107 170.156)" fill="#6196AD" font-family="'Gotham-Bold'" font-size="20.9406">M</text>
<text transform="matrix(1 0 0 1 83.0107 170.156)" fill="none" stroke="#6196AD" stroke-miterlimit="10" font-family="'Gotham-Bold'" font-size="20.9406">M</text>
<g>
	<path fill="#6196AD" d="M47.974,42.667c0.382,0.043,0.748,0.065,1.09,0.065l0,0c1.559,0,2.698-0.455,3.385-1.353
		c1.16-1.513,0.588-3.705,0.562-3.798c-0.026-0.098-0.109-0.17-0.211-0.183c-1.994-0.24-3.447,0.179-4.303,1.233
		c-1.219,1.508-0.76,3.741-0.74,3.835C47.78,42.575,47.866,42.654,47.974,42.667z"/>
	<path fill="#6196AD" d="M46.72,43.481c-1.988-0.238-3.446,0.178-4.301,1.232c-1.219,1.508-0.762,3.739-0.742,3.833
		c0.023,0.105,0.109,0.186,0.217,0.197c0.383,0.043,0.75,0.065,1.092,0.065c1.559,0,2.697-0.454,3.384-1.352
		c1.159-1.513,0.587-3.703,0.562-3.795C46.904,43.565,46.821,43.493,46.72,43.481z"/>
	<path fill="#6196AD" d="M48.019,43.485c-0.104,0.021-0.184,0.108-0.195,0.216c-0.211,1.829,0.083,3.206,0.871,4.09
		c0.815,0.914,1.992,1.106,2.835,1.106c0,0,0,0,0.001,0c0.768,0,1.348-0.154,1.373-0.161c0.098-0.026,0.17-0.11,0.183-0.212
		c0.21-1.736-0.08-3.062-0.86-3.943C50.756,42.922,48.065,43.474,48.019,43.485z"/>
	<path fill="#6196AD" d="M45.448,42.818L45.448,42.818c0.769,0,1.35-0.154,1.375-0.161c0.098-0.026,0.17-0.109,0.183-0.211
		c0.21-1.737-0.079-3.064-0.86-3.945c-1.469-1.655-4.159-1.105-4.207-1.098c-0.105,0.022-0.185,0.109-0.197,0.217
		c-0.209,1.831,0.084,3.207,0.872,4.092C43.429,42.625,44.604,42.818,45.448,42.818z"/>
</g>
<path fill="none" stroke="#6196AD" stroke-width="0.5" stroke-linecap="round" stroke-linejoin="round" stroke-miterlimit="10" d="
	M29.574,66.739c0.467-6.709,2.769-18.356,12.63-25.193"/>
<path fill="none" stroke="#6196AD" stroke-width="0.5" stroke-linecap="round" stroke-linejoin="round" stroke-miterlimit="10" d="
	M71.088,25.225c-6.709,0.467-18.356,2.769-25.193,12.63"/>
<g>
	<path fill="#6196AD" d="M31.374,60.919l-1.352,1.173l-1.391-1.396c-0.26-0.164-0.561-0.252-0.869-0.252
		c-0.566,0-1.086,0.286-1.388,0.766c-0.479,0.765-0.248,1.777,0.565,2.283l1.691,0.582l-0.512,1.902
		c-0.032,0.901,0.674,1.665,1.575,1.698c0.003,0,0.056,0.002,0.06,0.002c0.885,0,1.604-0.692,1.633-1.635l-0.343-1.758l1.905-0.504
		c0.797-0.422,1.104-1.415,0.684-2.213C33.226,60.795,32.305,60.401,31.374,60.919z M29.754,67.423L29.754,67.423l0.001,0.005
		L29.754,67.423z"/>
	<path fill="#6196AD" d="M71.465,23.969c-0.022,0-0.095,0.005-0.116,0.011l-1.846,0.503l-0.607-1.742
		c-0.302-0.479-0.82-0.766-1.387-0.766c-0.307,0-0.608,0.087-0.871,0.252c-0.37,0.231-0.627,0.597-0.725,1.022
		c-0.096,0.427-0.021,0.864,0.247,1.277l1.361,1.348l-1.206,1.396c-0.422,0.798-0.116,1.791,0.682,2.213
		c0.235,0.124,0.5,0.188,0.764,0.188c0.609,0,1.164-0.334,1.471-0.926l0.484-1.854l1.812,0.348c0.438-0.016,0.842-0.202,1.14-0.523
		c0.298-0.319,0.452-0.736,0.437-1.174C73.071,24.663,72.352,23.969,71.465,23.969z"/>
</g>
<g>
	<path fill="#6196AD" d="M43.843,135.729c0.043-0.381,0.065-0.748,0.065-1.09l0,0c0-1.56-0.455-2.697-1.352-3.386
		c-1.513-1.16-3.705-0.586-3.798-0.562c-0.098,0.026-0.17,0.111-0.183,0.213c-0.24,1.994,0.179,3.447,1.234,4.301
		c1.507,1.219,3.741,0.76,3.835,0.74C43.751,135.924,43.83,135.836,43.843,135.729z"/>
	<path fill="#6196AD" d="M44.657,136.985c-0.238,1.988,0.178,3.445,1.233,4.299c1.507,1.221,3.739,0.762,3.833,0.742
		c0.105-0.021,0.185-0.109,0.197-0.217c0.043-0.381,0.065-0.748,0.065-1.091c0-1.559-0.454-2.696-1.351-3.385
		c-1.513-1.158-3.703-0.586-3.795-0.562C44.741,136.799,44.669,136.883,44.657,136.985z"/>
	<path fill="#6196AD" d="M44.661,135.684c0.021,0.104,0.109,0.184,0.216,0.196c1.829,0.209,3.206-0.084,4.09-0.873
		c0.914-0.813,1.106-1.989,1.106-2.834l0,0c0-0.768-0.154-1.35-0.161-1.373c-0.026-0.1-0.11-0.172-0.212-0.184
		c-1.736-0.209-3.062,0.08-3.943,0.861C44.099,132.948,44.65,135.637,44.661,135.684z"/>
	<path fill="#6196AD" d="M43.994,138.254L43.994,138.254c0-0.768-0.154-1.35-0.161-1.373c-0.026-0.1-0.109-0.172-0.211-0.184
		c-1.737-0.211-3.064,0.08-3.945,0.859c-1.656,1.471-1.106,4.159-1.098,4.209c0.023,0.104,0.109,0.184,0.217,0.194
		c1.831,0.211,3.207-0.082,4.092-0.871C43.802,140.274,43.994,139.098,43.994,138.254z"/>
</g>
<path fill="none" stroke="#6196AD" stroke-width="0.5" stroke-linecap="round" stroke-linejoin="round" stroke-miterlimit="10" d="
	M67.915,154.129c-6.709-0.467-18.356-2.77-25.193-12.631"/>
<path fill="none" stroke="#6196AD" stroke-width="0.5" stroke-linecap="round" stroke-linejoin="round" stroke-miterlimit="10" d="
	M26.401,112.616c0.467,6.709,2.769,18.355,12.63,25.193"/>
<g>
	<path fill="#6196AD" d="M62.096,152.329l1.173,1.353l-1.396,1.391c-0.164,0.262-0.252,0.562-0.252,0.869
		c0,0.567,0.286,1.086,0.766,1.389c0.764,0.479,1.777,0.248,2.283-0.565l0.582-1.691l1.902,0.512
		c0.902,0.033,1.665-0.674,1.699-1.573c0-0.005,0.002-0.058,0.002-0.06c0-0.887-0.693-1.604-1.635-1.633l-1.758,0.342l-0.504-1.906
		c-0.422-0.797-1.415-1.104-2.213-0.682C61.972,150.479,61.577,151.399,62.096,152.329z M68.6,153.95L68.6,153.95h0.005H68.6z"/>
	<path fill="#6196AD" d="M25.146,112.239c0,0.021,0.004,0.096,0.01,0.117l0.503,1.844l-1.742,0.607
		c-0.479,0.303-0.766,0.819-0.766,1.387c0,0.309,0.087,0.609,0.252,0.871c0.232,0.371,0.597,0.629,1.023,0.725
		c0.427,0.099,0.864,0.021,1.277-0.246l1.348-1.36l1.396,1.207c0.798,0.42,1.791,0.114,2.213-0.685
		c0.124-0.233,0.189-0.498,0.189-0.762c0-0.609-0.334-1.166-0.926-1.471l-1.854-0.486l0.348-1.812
		c-0.016-0.438-0.202-0.842-0.523-1.139c-0.32-0.297-0.737-0.453-1.174-0.438C25.839,110.631,25.146,111.352,25.146,112.239z"/>
</g>
<g>
	<path fill="#6196AD" d="M136.906,139.862c-0.383-0.045-0.749-0.066-1.09-0.066h-0.002c-1.559,0-2.697,0.455-3.385,1.353
		c-1.158,1.512-0.587,3.705-0.562,3.797c0.024,0.1,0.108,0.172,0.211,0.184c1.994,0.24,3.446-0.18,4.302-1.233
		c1.221-1.508,0.762-3.742,0.74-3.836C137.1,139.952,137.014,139.874,136.906,139.862z"/>
	<path fill="#6196AD" d="M138.16,139.045c1.988,0.238,3.445-0.178,4.301-1.231c1.219-1.506,0.762-3.738,0.741-3.834
		c-0.022-0.105-0.109-0.185-0.216-0.195c-0.383-0.045-0.75-0.066-1.092-0.066c-1.56,0-2.697,0.455-3.386,1.353
		c-1.157,1.512-0.586,3.701-0.561,3.795C137.975,138.961,138.059,139.034,138.16,139.045z"/>
	<path fill="#6196AD" d="M136.859,139.043c0.104-0.022,0.186-0.108,0.197-0.217c0.209-1.83-0.084-3.207-0.871-4.09
		c-0.816-0.914-1.992-1.105-2.836-1.105l0,0c-0.769,0-1.35,0.152-1.373,0.16c-0.1,0.025-0.172,0.109-0.185,0.211
		c-0.209,1.736,0.08,3.064,0.86,3.943C134.123,139.604,136.812,139.052,136.859,139.043z"/>
	<path fill="#6196AD" d="M139.432,139.709L139.432,139.709c-0.77,0-1.351,0.154-1.375,0.16c-0.099,0.027-0.17,0.111-0.184,0.213
		c-0.209,1.736,0.08,3.062,0.861,3.943c1.469,1.658,4.158,1.106,4.207,1.098c0.104-0.021,0.184-0.108,0.195-0.217
		c0.211-1.83-0.082-3.207-0.871-4.092C141.451,139.901,140.273,139.709,139.432,139.709z"/>
</g>
<path fill="none" stroke="#6196AD" stroke-width="0.5" stroke-linecap="round" stroke-linejoin="round" stroke-miterlimit="10" d="
	M155.305,115.788c-0.467,6.709-2.768,18.357-12.629,25.193"/>
<path fill="none" stroke="#6196AD" stroke-width="0.5" stroke-linecap="round" stroke-linejoin="round" stroke-miterlimit="10" d="
	M113.791,157.301c6.709-0.467,18.357-2.768,25.193-12.629"/>
<g>
	<path fill="#6196AD" d="M153.506,121.608l1.352-1.174l1.391,1.396c0.261,0.166,0.562,0.252,0.87,0.252
		c0.565,0,1.085-0.285,1.387-0.766c0.479-0.765,0.248-1.775-0.565-2.281l-1.69-0.584l0.513-1.9c0.031-0.903-0.675-1.666-1.576-1.7
		c-0.002,0-0.056,0-0.059,0c-0.885,0-1.604,0.69-1.633,1.635l0.342,1.756l-1.904,0.504c-0.797,0.422-1.104,1.416-0.684,2.213
		C151.654,121.733,152.574,122.125,153.506,121.608z M155.125,115.104L155.125,115.104V115.1V115.104z"/>
	<path fill="#6196AD" d="M113.414,158.557c0.021,0,0.096-0.004,0.117-0.011l1.846-0.504l0.605,1.744
		c0.303,0.479,0.822,0.764,1.389,0.764c0.307,0,0.607-0.086,0.87-0.25c0.37-0.233,0.628-0.598,0.726-1.024
		c0.096-0.426,0.021-0.863-0.248-1.277l-1.361-1.346l1.207-1.398c0.422-0.797,0.115-1.789-0.682-2.213
		c-0.236-0.123-0.5-0.188-0.764-0.188c-0.609,0-1.165,0.336-1.471,0.926l-0.484,1.854l-1.812-0.348
		c-0.438,0.019-0.842,0.203-1.141,0.523c-0.297,0.319-0.452,0.737-0.436,1.174C111.809,157.864,112.527,158.557,113.414,158.557z"/>
</g>
<g>
	<path fill="#6196AD" d="M141.037,46.797c-0.043,0.384-0.066,0.748-0.066,1.091l0,0c0,1.559,0.455,2.698,1.353,3.385
		c1.514,1.16,3.704,0.588,3.798,0.562c0.1-0.024,0.171-0.108,0.184-0.211c0.239-1.994-0.179-3.447-1.234-4.303
		c-1.508-1.219-3.74-0.76-3.836-0.74C141.129,46.604,141.049,46.69,141.037,46.797z"/>
	<path fill="#6196AD" d="M140.223,45.543c0.238-1.987-0.178-3.444-1.233-4.301c-1.507-1.219-3.738-0.762-3.833-0.742
		c-0.104,0.023-0.186,0.109-0.196,0.217c-0.043,0.384-0.065,0.75-0.065,1.093c0,1.559,0.455,2.696,1.352,3.385
		c1.512,1.158,3.703,0.586,3.795,0.561C140.139,45.729,140.21,45.645,140.223,45.543z"/>
	<path fill="#6196AD" d="M140.219,46.842c-0.021-0.104-0.109-0.184-0.217-0.194c-1.829-0.211-3.205,0.084-4.09,0.871
		c-0.914,0.815-1.105,1.991-1.105,2.836l0,0c0,0.768,0.154,1.348,0.16,1.373c0.027,0.098,0.11,0.17,0.213,0.184
		c1.735,0.209,3.062-0.08,3.943-0.861C140.779,49.581,140.229,46.889,140.219,46.842z"/>
	<path fill="#6196AD" d="M140.885,44.272L140.885,44.272c0,0.77,0.154,1.35,0.162,1.375c0.025,0.098,0.109,0.17,0.211,0.184
		c1.736,0.209,3.064-0.08,3.945-0.861c1.656-1.469,1.105-4.157,1.097-4.206c-0.022-0.105-0.108-0.185-0.216-0.197
		c-1.832-0.209-3.208,0.084-4.092,0.873C141.077,42.252,140.885,43.427,140.885,44.272z"/>
</g>
<path fill="none" stroke="#6196AD" stroke-width="0.5" stroke-linecap="round" stroke-linejoin="round" stroke-miterlimit="10" d="
	M116.965,28.399c6.709,0.467,18.355,2.768,25.193,12.629"/>
<path fill="none" stroke="#6196AD" stroke-width="0.5" stroke-linecap="round" stroke-linejoin="round" stroke-miterlimit="10" d="
	M158.479,69.913c-0.467-6.709-2.77-18.356-12.631-25.193"/>
<g>
	<path fill="#6196AD" d="M122.783,30.198l-1.174-1.352l1.397-1.392c0.164-0.26,0.252-0.561,0.252-0.869
		c0-0.565-0.286-1.086-0.767-1.387c-0.764-0.48-1.776-0.248-2.282,0.564l-0.583,1.69l-1.9-0.512
		c-0.902-0.031-1.666,0.674-1.701,1.576c0,0.002,0,0.055,0,0.059c0,0.885,0.692,1.604,1.635,1.633l1.757-0.342l0.504,1.904
		c0.423,0.797,1.415,1.104,2.214,0.684C122.908,32.049,123.302,31.129,122.783,30.198z M116.279,28.579L116.279,28.579h-0.004
		H116.279z"/>
	<path fill="#6196AD" d="M159.732,70.29c0-0.022-0.004-0.096-0.01-0.117l-0.502-1.846l1.741-0.607
		c0.479-0.301,0.767-0.819,0.767-1.387c0-0.307-0.088-0.606-0.252-0.871c-0.233-0.369-0.599-0.627-1.024-0.725
		c-0.427-0.096-0.864-0.021-1.276,0.248l-1.348,1.361l-1.396-1.207c-0.799-0.423-1.791-0.115-2.214,0.682
		c-0.124,0.236-0.188,0.5-0.188,0.764c0,0.609,0.334,1.164,0.927,1.472l1.853,0.483l-0.347,1.812
		c0.017,0.438,0.201,0.842,0.522,1.141c0.32,0.297,0.736,0.451,1.174,0.437C159.041,71.895,159.732,71.176,159.732,70.29z"/>
</g>
<g>
	<g>
		<path fill="#6196AD" d="M111.654,108.243c0.642,0.581,0.859,2.009,0.031,2.827c-0.817,0.827-2.25,0.608-2.826-0.031
			c-5.366-5.763-10.733-11.522-16.095-17.291L92.151,93.1c-5.611,6.023-11.221,12.053-16.832,18.082
			c-0.578,0.639-2.006,0.856-2.827,0.03c-0.827-0.817-0.61-2.251,0.031-2.832c6.046-5.624,12.093-11.254,18.139-16.877
			c0,0-2.93-3.156-4.188-4.513c-2.956,2.116-7.331,1.311-9.958-1.938c-2.832-3.424-5.273-9.555-2.907-12.062
			c2.508-2.364,8.634,0.082,12.061,2.909c3.246,2.63,4.055,7.001,1.935,9.958c1.52,1.414,3.041,2.827,4.562,4.245
			c0,0-0.004,0.004-0.009,0.004c0,0,0.098,0.077,0.009-0.004c1.422-1.324,2.847-2.65,4.269-3.975
			c-1.199-2.054-0.4-4.932,1.553-6.575c2.236-1.877,10.531-8.998,10.758-8.771c0.223,0.222-5.598,5.721-9.482,9.617l0.646,0.647
			c4.151-3.636,10.008-9.091,10.233-8.87c0.224,0.229-5.414,5.9-9.177,9.935l0.646,0.639c4.023-3.761,9.701-9.397,9.924-9.181
			c0.222,0.227-5.233,6.087-8.87,10.233l0.646,0.642c3.895-3.886,9.391-9.706,9.616-9.482c0.224,0.223-8.759,10.75-8.771,10.765
			c0,0,1.906-2.242-0.006-0.004c-1.826,2.138-4.558,2.781-6.57,1.551c-1.311,1.404-2.619,2.81-3.926,4.214
			C93.534,91.379,105.652,102.659,111.654,108.243L111.654,108.243z"/>
	</g>
</g>
</svg>
