<?xml version="1.0" encoding="utf-8"?>
<!-- Generator: Adobe Illustrator 16.0.4, SVG Export Plug-In . SVG Version: 6.00 Build 0)  -->
<!DOCTYPE svg PUBLIC "-//W3C//DTD SVG 1.1//EN" "http://www.w3.org/Graphics/SVG/1.1/DTD/svg11.dtd">
<svg version="1.1" id="Layer_1" xmlns="http://www.w3.org/2000/svg" xmlns:xlink="http://www.w3.org/1999/xlink" x="0px" y="0px"
	 width="171.697px" height="19.057px" viewBox="0 0 171.697 19.057" enable-background="new 0 0 171.697 19.057"
	 xml:space="preserve">
<rect x="2.791" y="2.79" transform="matrix(0.7071 -0.7071 0.7071 0.7071 -3.9462 9.5283)" fill="#6196AD" width="13.475" height="13.474"/>
<rect x="21.87" y="2.79" transform="matrix(0.7071 -0.7071 0.7071 0.7071 1.643 23.0205)" fill="#6196AD" width="13.474" height="13.474"/>
<rect x="40.95" y="2.788" transform="matrix(0.7071 -0.7071 0.7071 0.7071 7.2316 36.51)" fill="#6196AD" width="13.475" height="13.475"/>
<rect x="60.03" y="2.787" transform="matrix(0.7071 -0.7071 0.7071 0.7071 12.8227 50.0038)" fill="#6196AD" width="13.474" height="13.475"/>
<rect x="79.109" y="2.786" transform="matrix(0.7071 -0.7071 0.7071 0.7071 18.4097 63.4924)" fill="#6196AD" width="13.475" height="13.474"/>
<rect x="98.189" y="2.786" transform="matrix(0.7071 -0.7071 0.7071 0.7071 24.0013 76.9875)" fill="#6196AD" width="13.474" height="13.475"/>
<rect x="117.272" y="2.79" transform="matrix(0.7071 -0.7071 0.7071 0.7071 29.5845 90.4785)" fill="#6196AD" width="13.475" height="13.475"/>
<rect x="136.343" y="2.796" transform="matrix(0.7071 -0.7071 0.7071 0.7071 35.1709 103.9717)" fill="#6196AD" width="13.476" height="13.476"/>
<rect x="155.439" y="2.794" transform="matrix(0.707 -0.7072 0.7072 0.707 40.7768 117.4855)" fill="#6196AD" width="13.473" height="13.475"/>
</svg>
