<?xml version="1.0" encoding="utf-8"?>
<!-- Generator: Adobe Illustrator 16.0.4, SVG Export Plug-In . SVG Version: 6.00 Build 0)  -->
<!DOCTYPE svg PUBLIC "-//W3C//DTD SVG 1.1//EN" "http://www.w3.org/Graphics/SVG/1.1/DTD/svg11.dtd">
<svg version="1.1" id="Layer_1" xmlns="http://www.w3.org/2000/svg" xmlns:xlink="http://www.w3.org/1999/xlink" x="0px" y="0px"
	 width="171.697px" height="19.057px" viewBox="0 0 171.697 19.057" enable-background="new 0 0 171.697 19.057"
	 xml:space="preserve">
<rect x="2.79" y="2.79" transform="matrix(-0.7071 0.7071 -0.7071 -0.7071 23.0013 9.5268)" fill="#F9F6EA" width="13.475" height="13.474"/>
<rect x="21.87" y="2.792" transform="matrix(-0.7071 0.7071 -0.7071 -0.7071 55.5741 -3.9621)" fill="#F9F6EA" width="13.474" height="13.475"/>
<rect x="40.949" y="2.788" transform="matrix(-0.7071 0.7071 -0.7071 -0.7071 88.142 -17.4584)" fill="#F9F6EA" width="13.475" height="13.474"/>
<rect x="60.032" y="2.79" transform="matrix(-0.7071 0.7071 -0.7071 -0.7071 120.7185 -30.9481)" fill="#F9F6EA" width="13.474" height="13.474"/>
<rect x="79.108" y="2.787" transform="matrix(-0.7071 0.7071 -0.7071 -0.7071 153.2792 -44.4466)" fill="#F9F6EA" width="13.474" height="13.474"/>
<rect x="98.192" y="2.791" transform="matrix(-0.7071 0.7071 -0.7071 -0.7071 185.8623 -57.9305)" fill="#F9F6EA" width="13.474" height="13.475"/>
<rect x="117.271" y="2.791" transform="matrix(-0.7071 0.7071 -0.7071 -0.7071 218.4335 -71.421)" fill="#F9F6EA" width="13.475" height="13.475"/>
<rect x="136.348" y="2.802" transform="matrix(-0.7071 0.7071 -0.7071 -0.7071 251.0077 -84.8902)" fill="#F9F6EA" width="13.475" height="13.476"/>
<rect x="155.439" y="2.796" transform="matrix(-0.707 0.7072 -0.7072 -0.707 283.5759 -98.4186)" fill="#F9F6EA" width="13.473" height="13.475"/>
</svg>
